<svg xmlns="http://www.w3.org/2000/svg" viewBox="0 0 1300 1150" font-family="Segoe UI, system-ui, sans-serif">
  <defs>
    <filter id="shadow" x="-2%" y="-2%" width="104%" height="108%">
      <feDropShadow dx="0" dy="2" stdDeviation="3" flood-color="#00000015"/>
    </filter>
    <filter id="shadowLg" x="-3%" y="-3%" width="106%" height="112%">
      <feDropShadow dx="0" dy="3" stdDeviation="5" flood-color="#00000020"/>
    </filter>
    <linearGradient id="headerGrad" x1="0" y1="0" x2="1" y2="0">
      <stop offset="0%" stop-color="#1565C0"/>
      <stop offset="100%" stop-color="#1976D2"/>
    </linearGradient>
    <linearGradient id="communityGrad" x1="0" y1="0" x2="1" y2="0">
      <stop offset="0%" stop-color="#E65100"/>
      <stop offset="100%" stop-color="#EF6C00"/>
    </linearGradient>
    <linearGradient id="cardBg" x1="0" y1="0" x2="0" y2="1">
      <stop offset="0%" stop-color="#E3F2FD"/>
      <stop offset="100%" stop-color="#F5F9FF" stop-opacity="0.5"/>
    </linearGradient>
    <linearGradient id="cardBgOrange" x1="0" y1="0" x2="0" y2="1">
      <stop offset="0%" stop-color="#FFF3E0"/>
      <stop offset="100%" stop-color="#FFFAF5" stop-opacity="0.5"/>
    </linearGradient>
    <marker id="arrowBlue" markerWidth="8" markerHeight="6" refX="4" refY="6" orient="auto">
      <polygon points="0 0, 8 0, 4 6" fill="#90CAF9"/>
    </marker>
    <marker id="linkArrow" markerWidth="8" markerHeight="6" refX="8" refY="3" orient="auto">
      <polygon points="0 0, 8 3, 0 6" fill="#CE93D8"/>
    </marker>
  </defs>

  <!-- Background -->
  <rect width="1300" height="1150" fill="#F5F7FA"/>

  <!-- ==================== HEADER: carsharing2go.net ==================== -->
  <rect x="40" y="20" width="740" height="80" rx="14" fill="url(#headerGrad)" filter="url(#shadowLg)"/>
  <rect x="54" y="32" width="56" height="56" rx="28" fill="#FFFFFF" opacity="0.15"/>
  <text x="82" y="62" text-anchor="middle" font-size="24" fill="#FFFFFF">🚗</text>
  <text x="125" y="52" font-size="19" font-weight="700" fill="#FFFFFF" letter-spacing="0.3">carsharing2go.net</text>
  <text x="125" y="74" font-size="11" fill="#90CAF9" letter-spacing="0.5">Nutzerportal – E-Carsharing im ländlichen Raum</text>
  <rect x="530" y="38" width="230" height="22" rx="6" fill="#0D47A1" opacity="0.4"/>
  <text x="645" y="54" text-anchor="middle" font-size="9" fill="#BBDEFB">Car&amp;RideSharing Community eG</text>
  <text x="645" y="76" text-anchor="middle" font-size="9" fill="#90CAF9">Genossenschaftliches Carsharing</text>

  <!-- ==================== HEADER: sharing-community.de ==================== -->
  <rect x="810" y="20" width="450" height="80" rx="14" fill="url(#communityGrad)" filter="url(#shadowLg)"/>
  <rect x="824" y="32" width="56" height="56" rx="28" fill="#FFFFFF" opacity="0.15"/>
  <text x="852" y="62" text-anchor="middle" font-size="24" fill="#FFFFFF">🤝</text>
  <text x="895" y="52" font-size="19" font-weight="700" fill="#FFFFFF" letter-spacing="0.3">sharing-community.de</text>
  <text x="895" y="74" font-size="11" fill="#FFE0B2" letter-spacing="0.5">Genossenschafts- &amp; Community-Portal</text>

  <!-- Cross-link indicator -->
  <path d="M 780 60 Q 795 60 810 60" stroke="#CE93D8" stroke-width="2.5" fill="none" stroke-dasharray="6 3" marker-end="url(#linkArrow)"/>
  <path d="M 810 60 Q 795 60 780 60" stroke="#CE93D8" stroke-width="2.5" fill="none" stroke-dasharray="6 3"/>

  <!-- ==================== NAVIGATION BAR carsharing2go ==================== -->
  <rect x="40" y="115" width="740" height="42" rx="10" fill="#FFFFFF" filter="url(#shadow)" stroke="#BBDEFB" stroke-width="1"/>
  <text x="60" y="141" font-size="9" font-weight="700" fill="#1565C0" letter-spacing="1">NAVIGATION:</text>
  <rect x="155" y="123" width="95" height="26" rx="6" fill="#E3F2FD" stroke="#90CAF9" stroke-width="0.8"/>
  <text x="202" y="141" text-anchor="middle" font-size="9.5" font-weight="600" fill="#1565C0">Registrieren</text>
  <rect x="258" y="123" width="115" height="26" rx="6" fill="#E3F2FD" stroke="#90CAF9" stroke-width="0.8"/>
  <text x="315" y="141" text-anchor="middle" font-size="9.5" font-weight="600" fill="#1565C0">Unsere Standorte</text>
  <rect x="381" y="123" width="70" height="26" rx="6" fill="#E3F2FD" stroke="#90CAF9" stroke-width="0.8"/>
  <text x="416" y="141" text-anchor="middle" font-size="9.5" font-weight="600" fill="#1565C0">Service</text>
  <rect x="459" y="123" width="85" height="26" rx="6" fill="#FFF3E0" stroke="#FFB74D" stroke-width="0.8"/>
  <text x="501" y="141" text-anchor="middle" font-size="9.5" font-weight="600" fill="#E65100">Community ↗</text>
  <rect x="552" y="123" width="70" height="26" rx="6" fill="#E3F2FD" stroke="#90CAF9" stroke-width="0.8"/>
  <text x="587" y="141" text-anchor="middle" font-size="9.5" font-weight="600" fill="#1565C0">Kontakt</text>

  <!-- Nav drop lines -->
  <line x1="315" y1="149" x2="195" y2="178" stroke="#90CAF9" stroke-width="1.5" marker-end="url(#arrowBlue)"/>
  <line x1="416" y1="149" x2="500" y2="178" stroke="#90CAF9" stroke-width="1.5" marker-end="url(#arrowBlue)"/>

  <!-- ==================== COLUMN 1: Standorte (carsharing2go) ==================== -->
  <rect x="40" y="178" width="420" height="490" rx="12" fill="url(#cardBg)" stroke="#90CAF9" stroke-width="1" filter="url(#shadow)"/>
  <rect x="40" y="178" width="420" height="34" rx="12" fill="#1E88E5"/>
  <rect x="40" y="196" width="420" height="16" fill="#1E88E5"/>
  <text x="60" y="201" font-size="13" font-weight="700" fill="#FFFFFF" letter-spacing="0.5">📍  Unsere Standorte</text>
  <text x="420" y="201" text-anchor="end" font-size="9" fill="#90CAF9">/unsere-standorte</text>

  <text x="60" y="234" font-size="10" font-weight="600" fill="#1565C0">11 Standorte in der Region Rheinland / Bergisches Land</text>
  <text x="60" y="250" font-size="9" fill="#78909C">Jede Station mit eigener Detailseite (Fahrzeug, Lage, Buchung)</text>

  <!-- Station cards -->
  <rect x="58" y="264" width="190" height="38" rx="6" fill="#FFFFFF" stroke="#E0E0E0" stroke-width="0.5"/>
  <circle cx="75" cy="283" r="5" fill="#42A5F5"/>
  <text x="88" y="280" font-size="10" font-weight="600" fill="#1565C0">Bad Honnef</text>
  <text x="88" y="293" font-size="8" fill="#90A4AE">Rathaus · Stadtwerke BHAG</text>

  <rect x="258" y="264" width="190" height="38" rx="6" fill="#FFFFFF" stroke="#E0E0E0" stroke-width="0.5"/>
  <circle cx="275" cy="283" r="5" fill="#42A5F5"/>
  <text x="288" y="280" font-size="10" font-weight="600" fill="#1565C0">Dieringhausen</text>
  <text x="288" y="293" font-size="8" fill="#90A4AE">1 Standort</text>

  <rect x="58" y="310" width="190" height="38" rx="6" fill="#FFFFFF" stroke="#E0E0E0" stroke-width="0.5"/>
  <circle cx="75" cy="329" r="5" fill="#42A5F5"/>
  <text x="88" y="326" font-size="10" font-weight="600" fill="#1565C0">Gummersbach</text>
  <text x="88" y="339" font-size="8" fill="#90A4AE">1 Standort</text>

  <rect x="258" y="310" width="190" height="38" rx="6" fill="#FFFFFF" stroke="#E0E0E0" stroke-width="0.5"/>
  <circle cx="275" cy="329" r="5" fill="#42A5F5"/>
  <text x="288" y="326" font-size="10" font-weight="600" fill="#1565C0">Köln Clouth-Quartier</text>
  <text x="288" y="339" font-size="8" fill="#90A4AE">Wohnquartier (City)</text>

  <rect x="58" y="356" width="190" height="38" rx="6" fill="#FFFFFF" stroke="#E0E0E0" stroke-width="0.5"/>
  <circle cx="75" cy="375" r="5" fill="#42A5F5"/>
  <text x="88" y="372" font-size="10" font-weight="600" fill="#1565C0">Lohmar</text>
  <text x="88" y="385" font-size="8" fill="#90A4AE">1 Standort</text>

  <rect x="258" y="356" width="190" height="38" rx="6" fill="#FFFFFF" stroke="#E0E0E0" stroke-width="0.5"/>
  <circle cx="275" cy="375" r="5" fill="#42A5F5"/>
  <text x="288" y="372" font-size="10" font-weight="600" fill="#1565C0">Nümbrecht</text>
  <text x="288" y="385" font-size="8" fill="#90A4AE">1 Standort</text>

  <rect x="58" y="402" width="190" height="48" rx="6" fill="#FFFFFF" stroke="#E0E0E0" stroke-width="0.5"/>
  <circle cx="75" cy="421" r="5" fill="#1E88E5"/>
  <text x="88" y="418" font-size="10" font-weight="600" fill="#1565C0">Overath</text>
  <text x="88" y="431" font-size="8" fill="#90A4AE">Bahnhof · Zentrum Weberstr.</text>
  <text x="88" y="442" font-size="8" fill="#90A4AE">Marialinden (3 Stationen)</text>

  <rect x="258" y="402" width="190" height="38" rx="6" fill="#FFFFFF" stroke="#E0E0E0" stroke-width="0.5"/>
  <circle cx="275" cy="421" r="5" fill="#42A5F5"/>
  <text x="288" y="418" font-size="10" font-weight="600" fill="#1565C0">Radevormwald</text>
  <text x="288" y="431" font-size="8" fill="#90A4AE">1 Standort</text>

  <rect x="58" y="458" width="190" height="38" rx="6" fill="#FFFFFF" stroke="#E0E0E0" stroke-width="0.5"/>
  <circle cx="75" cy="477" r="5" fill="#42A5F5"/>
  <text x="88" y="474" font-size="10" font-weight="600" fill="#1565C0">Ruppichteroth</text>
  <text x="88" y="487" font-size="8" fill="#90A4AE">1 Standort</text>

  <rect x="258" y="458" width="190" height="38" rx="6" fill="#FFFFFF" stroke="#E0E0E0" stroke-width="0.5"/>
  <circle cx="275" cy="477" r="5" fill="#42A5F5"/>
  <text x="288" y="474" font-size="10" font-weight="600" fill="#1565C0">Wipperfürth</text>
  <text x="288" y="487" font-size="8" fill="#90A4AE">1 Standort</text>

  <!-- Registrierung info -->
  <rect x="58" y="510" width="390" height="50" rx="8" fill="#FFFFFF" filter="url(#shadow)" stroke="#C8E6C9" stroke-width="1"/>
  <text x="78" y="533" font-size="11" font-weight="600" fill="#2E7D32">📝 Registrierung</text>
  <text x="78" y="549" font-size="9" fill="#78909C">Quiz zum CC-Carsharing-Angebot + Startguthaben bei Teilnahme</text>

  <!-- Type badges -->
  <rect x="58" y="575" width="85" height="22" rx="5" fill="#E3F2FD" stroke="#90CAF9" stroke-width="0.8"/>
  <text x="100" y="590" text-anchor="middle" font-size="8.5" font-weight="600" fill="#1565C0">🏘️ Regio</text>
  <rect x="152" y="575" width="70" height="22" rx="5" fill="#E3F2FD" stroke="#90CAF9" stroke-width="0.8"/>
  <text x="187" y="590" text-anchor="middle" font-size="8.5" font-weight="600" fill="#1565C0">🏙️ City</text>
  <text x="235" y="590" font-size="8.5" fill="#90A4AE">Ländlich + Wohnquartier-Modell</text>

  <!-- Kontakt -->
  <rect x="58" y="607" width="390" height="46" rx="8" fill="#FFFFFF" filter="url(#shadow)" stroke="#E0E0E0" stroke-width="0.5"/>
  <text x="78" y="630" font-size="11" font-weight="600" fill="#1565C0">✉️ Kontakt</text>
  <text x="157" y="630" font-size="9" fill="#78909C">/kontakt</text>
  <text x="78" y="645" font-size="9" fill="#78909C">Kontaktformular, Anschrift, Anfragen</text>

  <!-- ==================== COLUMN 2: Service (carsharing2go) ==================== -->
  <rect x="480" y="178" width="300" height="305" rx="12" fill="url(#cardBg)" stroke="#90CAF9" stroke-width="1" filter="url(#shadow)"/>
  <rect x="480" y="178" width="300" height="34" rx="12" fill="#1E88E5"/>
  <rect x="480" y="196" width="300" height="16" fill="#1E88E5"/>
  <text x="500" y="201" font-size="13" font-weight="700" fill="#FFFFFF" letter-spacing="0.5">🔧  Service</text>
  <text x="740" y="201" text-anchor="end" font-size="9" fill="#90CAF9">→ sharing-community.de</text>

  <!-- Service subpages -->
  <rect x="498" y="225" width="265" height="62" rx="8" fill="#FFFFFF" filter="url(#shadow)" stroke="#E0E0E0" stroke-width="0.5"/>
  <text x="518" y="248" font-size="12" font-weight="600" fill="#1565C0">📞 Support</text>
  <text x="587" y="248" font-size="9" fill="#78909C">/support</text>
  <text x="518" y="265" font-size="9.5" fill="#78909C">Fragen zur Smartphone-Sharing-App,</text>
  <text x="518" y="278" font-size="9.5" fill="#78909C">Buchung, Fahrzeugnutzung</text>

  <rect x="498" y="296" width="265" height="72" rx="8" fill="#FFFFFF" filter="url(#shadow)" stroke="#E0E0E0" stroke-width="0.5"/>
  <text x="518" y="319" font-size="12" font-weight="600" fill="#1565C0">ℹ️ Informationen</text>
  <text x="620" y="319" font-size="9" fill="#78909C">/informationen</text>
  <text x="518" y="336" font-size="9.5" fill="#78909C">CarSharing kennenlernen, Standortpate</text>
  <text x="518" y="349" font-size="9.5" fill="#78909C">werden, Online-Kostenrechner,</text>
  <text x="518" y="362" font-size="9.5" fill="#78909C">„1 Fahrzeug ersetzt 20 private PKW"</text>

  <rect x="498" y="377" width="265" height="62" rx="8" fill="#FFFFFF" filter="url(#shadow)" stroke="#E0E0E0" stroke-width="0.5"/>
  <text x="518" y="400" font-size="12" font-weight="600" fill="#1565C0">💰 Kostenbeispiele</text>
  <text x="640" y="400" font-size="9" fill="#78909C">/kosten</text>
  <text x="518" y="417" font-size="9.5" fill="#78909C">Kostenvergleich eigenes Auto vs.</text>
  <text x="518" y="430" font-size="9.5" fill="#78909C">CarSharing, Checkliste, Rechner</text>

  <!-- Fahrzeuge (linked from sharing-community.de/service) -->
  <rect x="480" y="500" width="300" height="168" rx="12" fill="url(#cardBg)" stroke="#90CAF9" stroke-width="1" filter="url(#shadow)"/>
  <rect x="480" y="500" width="300" height="34" rx="12" fill="#1E88E5"/>
  <rect x="480" y="518" width="300" height="16" fill="#1E88E5"/>
  <text x="500" y="523" font-size="13" font-weight="700" fill="#FFFFFF" letter-spacing="0.5">🚙  Fahrzeuge</text>
  <text x="740" y="523" text-anchor="end" font-size="9" fill="#90CAF9">sharing-community.de/service</text>

  <rect x="498" y="548" width="128" height="45" rx="6" fill="#FFFFFF" stroke="#E0E0E0" stroke-width="0.5"/>
  <text x="562" y="567" text-anchor="middle" font-size="10" font-weight="600" fill="#1565C0">VW Tiguan TSI</text>
  <text x="562" y="581" text-anchor="middle" font-size="8" fill="#90A4AE">Online-Anleitung</text>

  <rect x="635" y="548" width="128" height="45" rx="6" fill="#FFFFFF" stroke="#E0E0E0" stroke-width="0.5"/>
  <text x="699" y="567" text-anchor="middle" font-size="10" font-weight="600" fill="#1565C0">VW Multivan T6</text>
  <text x="699" y="581" text-anchor="middle" font-size="8" fill="#90A4AE">Anleitung im Fzg.</text>

  <rect x="498" y="600" width="128" height="45" rx="6" fill="#FFFFFF" stroke="#E0E0E0" stroke-width="0.5"/>
  <text x="562" y="619" text-anchor="middle" font-size="10" font-weight="600" fill="#1565C0">MG5 Elektro</text>
  <text x="562" y="633" text-anchor="middle" font-size="8" fill="#90A4AE">E-Kombi</text>

  <rect x="635" y="600" width="128" height="45" rx="6" fill="#E8F5E9" stroke="#A5D6A7" stroke-width="0.8"/>
  <text x="699" y="619" text-anchor="middle" font-size="10" font-weight="600" fill="#2E7D32">+ weitere</text>
  <text x="699" y="633" text-anchor="middle" font-size="8" fill="#66BB6A">E-Fahrzeuge</text>

  <!-- ==================== COLUMN 3: sharing-community.de ==================== -->
  <rect x="810" y="115" width="450" height="553" rx="12" fill="url(#cardBgOrange)" stroke="#FFCC80" stroke-width="1" filter="url(#shadow)"/>
  <rect x="810" y="115" width="450" height="34" rx="12" fill="#EF6C00"/>
  <rect x="810" y="133" width="450" height="16" fill="#EF6C00"/>
  <text x="830" y="138" font-size="12" font-weight="700" fill="#FFFFFF" letter-spacing="0.5">GENOSSENSCHAFTS- &amp; COMMUNITY-PORTAL</text>

  <!-- Leistungsspektrum -->
  <rect x="828" y="162" width="415" height="192" rx="10" fill="#FFFFFF" filter="url(#shadow)" stroke="#E0E0E0" stroke-width="0.5"/>
  <rect x="828" y="162" width="415" height="28" rx="10" fill="#F57C00"/>
  <rect x="828" y="178" width="415" height="12" fill="#F57C00"/>
  <text x="848" y="183" font-size="11" font-weight="700" fill="#FFFFFF">🎯 Leistungsspektrum</text>
  <text x="1200" y="183" text-anchor="end" font-size="8" fill="#FFE0B2">/angebotspektrum</text>

  <rect x="845" y="200" width="125" height="36" rx="6" fill="#FFF3E0" stroke="#FFB74D" stroke-width="0.8"/>
  <text x="907" y="215" text-anchor="middle" font-size="10" font-weight="600" fill="#E65100">👤 Privatnutzer</text>
  <text x="907" y="228" text-anchor="middle" font-size="7.5" fill="#BF360C">→ carsharing2go.net</text>

  <rect x="980" y="200" width="125" height="36" rx="6" fill="#FFF3E0" stroke="#FFB74D" stroke-width="0.8"/>
  <text x="1042" y="215" text-anchor="middle" font-size="10" font-weight="600" fill="#E65100">🏛️ Kommunen</text>
  <text x="1042" y="228" text-anchor="middle" font-size="7.5" fill="#BF360C">/kommunen</text>

  <rect x="1115" y="200" width="120" height="36" rx="6" fill="#FFF3E0" stroke="#FFB74D" stroke-width="0.8"/>
  <text x="1175" y="215" text-anchor="middle" font-size="10" font-weight="600" fill="#E65100">🏢 Unternehmen</text>
  <text x="1175" y="228" text-anchor="middle" font-size="7.5" fill="#BF360C">/unternehmen</text>

  <rect x="845" y="244" width="125" height="36" rx="6" fill="#FFF3E0" stroke="#FFB74D" stroke-width="0.8"/>
  <text x="907" y="259" text-anchor="middle" font-size="10" font-weight="600" fill="#E65100">🏘️ Wohnungsbau</text>
  <text x="907" y="272" text-anchor="middle" font-size="7.5" fill="#BF360C">Genoss. + Untern.</text>

  <rect x="980" y="244" width="125" height="36" rx="6" fill="#FFF3E0" stroke="#FFB74D" stroke-width="0.8"/>
  <text x="1042" y="259" text-anchor="middle" font-size="10" font-weight="600" fill="#E65100">⚽ Vereine</text>
  <text x="1042" y="272" text-anchor="middle" font-size="7.5" fill="#BF360C">/bussharing</text>

  <rect x="1115" y="244" width="120" height="36" rx="6" fill="#FFF3E0" stroke="#FFB74D" stroke-width="0.8"/>
  <text x="1175" y="259" text-anchor="middle" font-size="10" font-weight="600" fill="#E65100">💡 Beratung</text>
  <text x="1175" y="272" text-anchor="middle" font-size="7.5" fill="#BF360C">/beratung</text>

  <rect x="845" y="288" width="190" height="30" rx="6" fill="#FFF3E0" stroke="#FFB74D" stroke-width="0.8"/>
  <text x="940" y="308" text-anchor="middle" font-size="10" font-weight="600" fill="#E65100">🎁 Vorteilsprogramm</text>

  <rect x="1045" y="288" width="85" height="30" rx="6" fill="#FFF3E0" stroke="#FFB74D" stroke-width="0.8"/>
  <text x="1087" y="308" text-anchor="middle" font-size="10" font-weight="600" fill="#E65100">🧩 Quiz</text>

  <rect x="1140" y="288" width="95" height="30" rx="6" fill="#FFF3E0" stroke="#FFB74D" stroke-width="0.8"/>
  <text x="1187" y="308" text-anchor="middle" font-size="10" font-weight="600" fill="#E65100">📰 News</text>

  <!-- Über uns / Organisation -->
  <rect x="828" y="368" width="415" height="180" rx="10" fill="#FFFFFF" filter="url(#shadow)" stroke="#E0E0E0" stroke-width="0.5"/>
  <rect x="828" y="368" width="415" height="28" rx="10" fill="#F57C00"/>
  <rect x="828" y="384" width="415" height="12" fill="#F57C00"/>
  <text x="848" y="389" font-size="11" font-weight="700" fill="#FFFFFF">🏛️ Über uns – Genossenschaft &amp; Community</text>

  <rect x="845" y="408" width="190" height="42" rx="6" fill="#FFF3E0" stroke="#FFB74D" stroke-width="0.8"/>
  <text x="940" y="427" text-anchor="middle" font-size="10" font-weight="600" fill="#E65100">🤝 Sharing Community</text>
  <text x="940" y="443" text-anchor="middle" font-size="8" fill="#BF360C">/sharing-community</text>

  <rect x="1045" y="408" width="190" height="42" rx="6" fill="#FFF3E0" stroke="#FFB74D" stroke-width="0.8"/>
  <text x="1140" y="427" text-anchor="middle" font-size="10" font-weight="600" fill="#E65100">📜 Genossenschaft</text>
  <text x="1140" y="443" text-anchor="middle" font-size="8" fill="#BF360C">Satzung, Mitgliedschaft, Ziele</text>

  <rect x="845" y="458" width="190" height="36" rx="6" fill="#FFF3E0" stroke="#FFB74D" stroke-width="0.8"/>
  <text x="940" y="481" text-anchor="middle" font-size="10" font-weight="600" fill="#E65100">✋ Mitglied werden</text>

  <rect x="1045" y="458" width="190" height="36" rx="6" fill="#FFF3E0" stroke="#FFB74D" stroke-width="0.8"/>
  <text x="1140" y="481" text-anchor="middle" font-size="10" font-weight="600" fill="#E65100">👥 Team</text>

  <rect x="845" y="502" width="190" height="36" rx="6" fill="#FFF3E0" stroke="#FFB74D" stroke-width="0.8"/>
  <text x="940" y="525" text-anchor="middle" font-size="10" font-weight="600" fill="#E65100">📰 Pressespiegel</text>

  <rect x="1045" y="502" width="190" height="36" rx="6" fill="#FFF3E0" stroke="#FFB74D" stroke-width="0.8"/>
  <text x="1140" y="525" text-anchor="middle" font-size="10" font-weight="600" fill="#E65100">📁 Pressemappe</text>

  <!-- Infos -->
  <rect x="828" y="558" width="200" height="46" rx="8" fill="#FFFFFF" filter="url(#shadow)" stroke="#FFB74D" stroke-width="0.8"/>
  <text x="848" y="581" font-size="11" font-weight="600" fill="#E65100">📋 Infos</text>
  <text x="906" y="581" font-size="9" fill="#BF360C">/infos</text>
  <text x="848" y="597" font-size="9" fill="#78909C">Allg. Informationen</text>

  <rect x="1038" y="558" width="200" height="46" rx="8" fill="#FFFFFF" filter="url(#shadow)" stroke="#FFB74D" stroke-width="0.8"/>
  <text x="1058" y="581" font-size="11" font-weight="600" fill="#E65100">✉️ Kontakt</text>
  <text x="1128" y="581" font-size="9" fill="#BF360C">/kontakt</text>
  <text x="1058" y="597" font-size="9" fill="#78909C">Community-Kontakt</text>

  <!-- ==================== STARTSEITE CONTENT ==================== -->
  <rect x="40" y="690" width="1220" height="36" rx="10" fill="#37474F" filter="url(#shadow)"/>
  <text x="650" y="714" text-anchor="middle" font-size="12" font-weight="700" fill="#FFFFFF" letter-spacing="1">STARTSEITE carsharing2go.net – INHALTSELEMENTE</text>

  <rect x="40" y="740" width="235" height="90" rx="8" fill="#FFFFFF" filter="url(#shadow)" stroke="#BBDEFB" stroke-width="1"/>
  <text x="157" y="770" text-anchor="middle" font-size="20">🌿</text>
  <text x="157" y="792" text-anchor="middle" font-size="10.5" font-weight="600" fill="#1565C0">Nachhaltige Mobilität</text>
  <text x="157" y="808" text-anchor="middle" font-size="9" fill="#78909C">Hero-Banner: E-Fahrzeuge</text>
  <text x="157" y="820" text-anchor="middle" font-size="9" fill="#78909C">gemeinsam nutzen</text>

  <rect x="290" y="740" width="235" height="90" rx="8" fill="#FFFFFF" filter="url(#shadow)" stroke="#BBDEFB" stroke-width="1"/>
  <text x="407" y="770" text-anchor="middle" font-size="20">📍</text>
  <text x="407" y="792" text-anchor="middle" font-size="10.5" font-weight="600" fill="#1565C0">Unsere Standorte</text>
  <text x="407" y="808" text-anchor="middle" font-size="9" fill="#78909C">CTA → Standort-Übersicht</text>
  <text x="407" y="820" text-anchor="middle" font-size="9" fill="#78909C">mit Registrierung</text>

  <rect x="540" y="740" width="235" height="90" rx="8" fill="#FFFFFF" filter="url(#shadow)" stroke="#BBDEFB" stroke-width="1"/>
  <text x="657" y="770" text-anchor="middle" font-size="20">🤝</text>
  <text x="657" y="792" text-anchor="middle" font-size="10.5" font-weight="600" fill="#1565C0">Mobile Zukunft gestalten</text>
  <text x="657" y="808" text-anchor="middle" font-size="9" fill="#78909C">CTA → sharing-community.de</text>
  <text x="657" y="820" text-anchor="middle" font-size="9" fill="#78909C">/sharing-community</text>

  <rect x="790" y="740" width="235" height="90" rx="8" fill="#FFFFFF" filter="url(#shadow)" stroke="#BBDEFB" stroke-width="1"/>
  <text x="907" y="770" text-anchor="middle" font-size="20">🎬</text>
  <text x="907" y="792" text-anchor="middle" font-size="10.5" font-weight="600" fill="#1565C0">CarSharing erklärt</text>
  <text x="907" y="808" text-anchor="middle" font-size="9" fill="#78909C">CTA → Erklärvideo</text>
  <text x="907" y="820" text-anchor="middle" font-size="9" fill="#78909C">(biteable.com)</text>

  <rect x="1040" y="740" width="220" height="90" rx="8" fill="#FFFFFF" filter="url(#shadow)" stroke="#BBDEFB" stroke-width="1"/>
  <text x="1150" y="770" text-anchor="middle" font-size="20">🏘️</text>
  <text x="1150" y="792" text-anchor="middle" font-size="10.5" font-weight="600" fill="#1565C0">Wohnortnah mobil</text>
  <text x="1150" y="808" text-anchor="middle" font-size="9" fill="#78909C">Ländlicher Raum +</text>
  <text x="1150" y="820" text-anchor="middle" font-size="9" fill="#78909C">Wohnquartiere</text>

  <!-- ==================== FOOTER ==================== -->
  <rect x="40" y="850" width="1220" height="36" rx="10" fill="#37474F" filter="url(#shadow)"/>
  <text x="650" y="874" text-anchor="middle" font-size="12" font-weight="700" fill="#FFFFFF" letter-spacing="1">FOOTER &amp; RECHTLICHES</text>

  <rect x="40" y="900" width="280" height="70" rx="8" fill="#FFFFFF" filter="url(#shadow)" stroke="#E0E0E0" stroke-width="0.5"/>
  <text x="60" y="923" font-size="11" font-weight="600" fill="#37474F">📄 Rechtliches</text>
  <text x="60" y="940" font-size="9.5" fill="#78909C">/impressum</text>
  <text x="60" y="955" font-size="9.5" fill="#78909C">/datenschutzerklaerung</text>

  <rect x="335" y="900" width="280" height="70" rx="8" fill="#FFFFFF" filter="url(#shadow)" stroke="#E0E0E0" stroke-width="0.5"/>
  <text x="355" y="923" font-size="11" font-weight="600" fill="#37474F">✉️ Kontakt</text>
  <text x="355" y="940" font-size="9.5" fill="#78909C">carsharing2go.net/kontakt</text>
  <text x="355" y="955" font-size="9.5" fill="#78909C">sharing-community.de/kontakt</text>

  <rect x="630" y="900" width="320" height="70" rx="8" fill="#FFFFFF" filter="url(#shadow)" stroke="#E0E0E0" stroke-width="0.5"/>
  <text x="650" y="923" font-size="11" font-weight="600" fill="#37474F">🔗 Zwei-Domain-Struktur</text>
  <text x="650" y="940" font-size="9.5" fill="#1565C0" font-weight="600">carsharing2go.net</text>
  <text x="810" y="940" font-size="9.5" fill="#78909C">→ Nutzer &amp; Standorte</text>
  <text x="650" y="955" font-size="9.5" fill="#E65100" font-weight="600">sharing-community.de</text>
  <text x="831" y="955" font-size="9.5" fill="#78909C">→ Genossenschaft &amp; Partner</text>

  <rect x="965" y="900" width="295" height="70" rx="8" fill="#FFFFFF" filter="url(#shadow)" stroke="#E0E0E0" stroke-width="0.5"/>
  <text x="985" y="923" font-size="11" font-weight="600" fill="#37474F">🏘️ Standortpate-Konzept</text>
  <text x="985" y="940" font-size="9.5" fill="#78909C">Ehrenamtliche „kümmern" sich um</text>
  <text x="985" y="955" font-size="9.5" fill="#78909C">CarSharing-Standorte vor Ort</text>

  <!-- ==================== LEGEND ==================== -->
  <rect x="40" y="990" width="1220" height="55" rx="8" fill="#FFFFFF" filter="url(#shadow)" stroke="#E0E0E0" stroke-width="0.5"/>
  <text x="60" y="1015" font-size="10" font-weight="700" fill="#37474F">Legende:</text>
  <rect x="130" y="1004" width="22" height="14" rx="3" fill="#E3F2FD" stroke="#90CAF9" stroke-width="0.8"/>
  <text x="160" y="1015" font-size="9.5" fill="#546E7A">carsharing2go.net (Nutzerportal)</text>
  <rect x="370" y="1004" width="22" height="14" rx="3" fill="#FFF3E0" stroke="#FFB74D" stroke-width="0.8"/>
  <text x="400" y="1015" font-size="9.5" fill="#546E7A">sharing-community.de (Genossenschaft)</text>
  <line x1="630" y1="1011" x2="660" y2="1011" stroke="#CE93D8" stroke-width="2.5" stroke-dasharray="6 3"/>
  <text x="670" y="1015" font-size="9.5" fill="#546E7A">Domainübergreifende Verlinkung</text>
  <rect x="900" y="1004" width="22" height="14" rx="3" fill="#E8F5E9" stroke="#A5D6A7" stroke-width="0.8"/>
  <text x="930" y="1015" font-size="9.5" fill="#546E7A">Registrierung / CTA-Elemente</text>

  <!-- MoPilot relevance note -->
  <rect x="40" y="1055" width="1220" height="56" rx="8" fill="#E8EAF6" filter="url(#shadow)" stroke="#C5CAE9" stroke-width="1"/>
  <text x="60" y="1078" font-size="11" font-weight="700" fill="#283593">🤖 MoPilot-Relevanz:</text>
  <text x="210" y="1078" font-size="10" fill="#3F51B5">Diese Projektwebseite ist eine zentrale Informationsquelle für Endkunden- und Stationspaten-Fragen.</text>
  <text x="60" y="1098" font-size="10" fill="#3F51B5">KI-relevant: Standortinfos, Kostenbeispiele, Fahrzeugdaten, Support-Inhalte, Registrierungsprozess, Standortpate-Konzept, Genossenschafts-Infos.</text>

  <!-- Footer -->
  <text x="650" y="1140" text-anchor="middle" font-size="9" fill="#B0BEC5">MoPilot – Inhaltsübersicht Projektwebseite carsharing2go.net + sharing-community.de │ Stand: 26.02.2026</text>
</svg>