<svg xmlns="http://www.w3.org/2000/svg" viewBox="0 0 1200 920" font-family="Segoe UI, system-ui, sans-serif">
  <defs>
    <filter id="shadow" x="-2%" y="-2%" width="104%" height="108%">
      <feDropShadow dx="0" dy="2" stdDeviation="3" flood-color="#00000015"/>
    </filter>
    <filter id="shadowLg" x="-3%" y="-3%" width="106%" height="112%">
      <feDropShadow dx="0" dy="3" stdDeviation="5" flood-color="#00000020"/>
    </filter>
    <linearGradient id="headerGrad" x1="0" y1="0" x2="1" y2="0">
      <stop offset="0%" stop-color="#1A237E"/>
      <stop offset="100%" stop-color="#283593"/>
    </linearGradient>
    <linearGradient id="betreiberGrad" x1="0" y1="0" x2="0" y2="1">
      <stop offset="0%" stop-color="#E3F2FD"/>
      <stop offset="100%" stop-color="#BBDEFB" stop-opacity="0.5"/>
    </linearGradient>
    <linearGradient id="communityGrad" x1="0" y1="0" x2="0" y2="1">
      <stop offset="0%" stop-color="#E8F5E9"/>
      <stop offset="100%" stop-color="#C8E6C9" stop-opacity="0.5"/>
    </linearGradient>
    <linearGradient id="nutzerGrad" x1="0" y1="0" x2="0" y2="1">
      <stop offset="0%" stop-color="#FFF3E0"/>
      <stop offset="100%" stop-color="#FFE0B2" stop-opacity="0.5"/>
    </linearGradient>
    <linearGradient id="internGrad" x1="0" y1="0" x2="0" y2="1">
      <stop offset="0%" stop-color="#F3E5F5"/>
      <stop offset="100%" stop-color="#E1BEE7" stop-opacity="0.5"/>
    </linearGradient>
  </defs>

  <!-- Background -->
  <rect width="1200" height="920" fill="#F8F9FC"/>

  <!-- ==================== HEADER ==================== -->
  <rect x="40" y="20" width="1120" height="72" rx="12" fill="url(#headerGrad)" filter="url(#shadowLg)"/>
  <text x="100" y="52" font-size="13" fill="#90CAF9" letter-spacing="1">INFO PORTAL</text>
  <text x="100" y="72" font-size="22" font-weight="700" fill="#FFFFFF" letter-spacing="0.3">info.evemo.de – Portalstruktur</text>
  <text x="1100" y="62" text-anchor="end" font-size="11" fill="#7986CB">MoPilot Informationsquelle</text>
  <!-- Globe icon -->
  <circle cx="62" cy="56" r="16" fill="none" stroke="#64B5F6" stroke-width="1.5"/>
  <ellipse cx="62" cy="56" rx="8" ry="16" fill="none" stroke="#64B5F6" stroke-width="1"/>
  <line x1="46" y1="56" x2="78" y2="56" stroke="#64B5F6" stroke-width="1"/>
  <line x1="49" y1="46" x2="75" y2="46" stroke="#64B5F6" stroke-width="0.7"/>
  <line x1="49" y1="66" x2="75" y2="66" stroke="#64B5F6" stroke-width="0.7"/>

  <!-- ==================== SECTION 1: Systeme für Sharing-Betreiber ==================== -->
  <rect x="40" y="110" width="1120" height="460" rx="14" fill="url(#betreiberGrad)" stroke="#90CAF9" stroke-width="1" filter="url(#shadow)"/>
  <!-- Section header bar -->
  <rect x="40" y="110" width="1120" height="38" rx="14" fill="#1565C0"/>
  <rect x="40" y="130" width="1120" height="18" fill="#1565C0"/>
  <text x="70" y="135" font-size="14" font-weight="700" fill="#FFFFFF" letter-spacing="0.8">🏢  SYSTEME FÜR SHARING-BETREIBER</text>

  <!-- Row 1: Administration + Informationen & Support -->
  <!-- Card: Administration -->
  <rect x="60" y="162" width="260" height="155" rx="10" fill="#FFFFFF" filter="url(#shadow)" stroke="#E0E0E0" stroke-width="0.5"/>
  <rect x="60" y="162" width="260" height="32" rx="10" fill="#1E88E5"/>
  <rect x="60" y="180" width="260" height="14" fill="#1E88E5"/>
  <text x="80" y="184" font-size="12" font-weight="700" fill="#FFFFFF">Administration</text>
  <circle cx="84" cy="222" r="6" fill="#E3F2FD" stroke="#42A5F5" stroke-width="1.2"/>
  <text x="100" y="226" font-size="12" font-weight="600" fill="#1565C0">Admin Center</text>
  <text x="100" y="242" font-size="9.5" fill="#78909C">Verwaltungsoberfläche für</text>
  <text x="100" y="255" font-size="9.5" fill="#78909C">Stationen, Tarife, Buchungen</text>
  <circle cx="84" cy="280" r="6" fill="#E3F2FD" stroke="#42A5F5" stroke-width="1.2"/>
  <text x="100" y="284" font-size="12" font-weight="600" fill="#1565C0">Provider Portal</text>
  <text x="100" y="300" font-size="9.5" fill="#78909C">Erweiterte Betreiberfunktionen</text>

  <!-- Card: Informationen und Support -->
  <rect x="340" y="162" width="260" height="155" rx="10" fill="#FFFFFF" filter="url(#shadow)" stroke="#E0E0E0" stroke-width="0.5"/>
  <rect x="340" y="162" width="260" height="32" rx="10" fill="#1E88E5"/>
  <rect x="340" y="180" width="260" height="14" fill="#1E88E5"/>
  <text x="360" y="184" font-size="12" font-weight="700" fill="#FFFFFF">Informationen &amp; Support</text>
  <circle cx="364" cy="222" r="6" fill="#E3F2FD" stroke="#42A5F5" stroke-width="1.2"/>
  <text x="380" y="226" font-size="12" font-weight="600" fill="#1565C0">Info Portal</text>
  <text x="380" y="242" font-size="9.5" fill="#78909C">Dokumentation, Anleitungen,</text>
  <text x="380" y="255" font-size="9.5" fill="#78909C">FAQs für Betreiber</text>
  <circle cx="364" cy="280" r="6" fill="#E3F2FD" stroke="#42A5F5" stroke-width="1.2"/>
  <text x="380" y="284" font-size="12" font-weight="600" fill="#1565C0">Ticket erstellen</text>
  <text x="380" y="300" font-size="9.5" fill="#78909C">Supportanfragen einreichen</text>

  <!-- Card: Software-Releases -->
  <rect x="620" y="162" width="250" height="155" rx="10" fill="#FFFFFF" filter="url(#shadow)" stroke="#E0E0E0" stroke-width="0.5"/>
  <rect x="620" y="162" width="250" height="32" rx="10" fill="#1E88E5"/>
  <rect x="620" y="180" width="250" height="14" fill="#1E88E5"/>
  <text x="640" y="184" font-size="12" font-weight="700" fill="#FFFFFF">Software-Releases</text>
  <circle cx="644" cy="222" r="6" fill="#E3F2FD" stroke="#42A5F5" stroke-width="1.2"/>
  <text x="660" y="226" font-size="12" font-weight="600" fill="#1565C0">Releases</text>
  <text x="660" y="242" font-size="9.5" fill="#78909C">Versionsinformationen,</text>
  <text x="660" y="255" font-size="9.5" fill="#78909C">Changelogs, Updates</text>

  <!-- Card: Status Monitor -->
  <rect x="890" y="162" width="250" height="155" rx="10" fill="#FFFFFF" filter="url(#shadow)" stroke="#E0E0E0" stroke-width="0.5"/>
  <rect x="890" y="162" width="250" height="32" rx="10" fill="#1E88E5"/>
  <rect x="890" y="180" width="250" height="14" fill="#1E88E5"/>
  <text x="910" y="184" font-size="12" font-weight="700" fill="#FFFFFF">Status Monitor</text>
  <circle cx="914" cy="222" r="6" fill="#E3F2FD" stroke="#42A5F5" stroke-width="1.2"/>
  <text x="930" y="226" font-size="12" font-weight="600" fill="#1565C0">Aktuelle Systemstörungen</text>
  <text x="930" y="242" font-size="9.5" fill="#78909C">Live-Status, Monitoring,</text>
  <text x="930" y="255" font-size="9.5" fill="#78909C">Störungsmeldungen</text>

  <!-- Row 2: Arbeitsprozesse (wide card) -->
  <rect x="60" y="335" width="1080" height="220" rx="10" fill="#FFFFFF" filter="url(#shadow)" stroke="#E0E0E0" stroke-width="0.5"/>
  <rect x="60" y="335" width="1080" height="34" rx="10" fill="#0D47A1"/>
  <rect x="60" y="353" width="1080" height="16" fill="#0D47A1"/>
  <text x="80" y="358" font-size="13" font-weight="700" fill="#FFFFFF">Arbeitsprozesse</text>
  <text x="365" y="358" font-size="10" fill="#90CAF9">Anleitungen und Funktionen zur Unterstützung der Arbeitsprozesse</text>

  <!-- Process tiles - Row 1 -->
  <rect x="80" y="385" width="140" height="65" rx="8" fill="#E3F2FD" stroke="#90CAF9" stroke-width="0.8"/>
  <text x="150" y="413" text-anchor="middle" font-size="10.5" font-weight="600" fill="#1565C0">Einrichtung</text>
  <text x="150" y="428" text-anchor="middle" font-size="10.5" font-weight="600" fill="#1565C0">Sharingsystem</text>
  <text x="150" y="443" text-anchor="middle" font-size="16">⚙️</text>

  <rect x="235" y="385" width="140" height="65" rx="8" fill="#E3F2FD" stroke="#90CAF9" stroke-width="0.8"/>
  <text x="305" y="413" text-anchor="middle" font-size="10.5" font-weight="600" fill="#1565C0">Fahrzeug-</text>
  <text x="305" y="428" text-anchor="middle" font-size="10.5" font-weight="600" fill="#1565C0">nutzung</text>
  <text x="305" y="443" text-anchor="middle" font-size="16">🚗</text>

  <rect x="390" y="385" width="140" height="65" rx="8" fill="#E3F2FD" stroke="#90CAF9" stroke-width="0.8"/>
  <text x="460" y="413" text-anchor="middle" font-size="10.5" font-weight="600" fill="#1565C0">Flotten-</text>
  <text x="460" y="428" text-anchor="middle" font-size="10.5" font-weight="600" fill="#1565C0">management</text>
  <text x="460" y="443" text-anchor="middle" font-size="16">📊</text>

  <rect x="545" y="385" width="140" height="65" rx="8" fill="#E3F2FD" stroke="#90CAF9" stroke-width="0.8"/>
  <text x="615" y="413" text-anchor="middle" font-size="10.5" font-weight="600" fill="#1565C0">Hardware-</text>
  <text x="615" y="428" text-anchor="middle" font-size="10.5" font-weight="600" fill="#1565C0">installation</text>
  <text x="615" y="443" text-anchor="middle" font-size="16">🔌</text>

  <!-- Process tiles - Row 2 -->
  <rect x="80" y="465" width="140" height="65" rx="8" fill="#E3F2FD" stroke="#90CAF9" stroke-width="0.8"/>
  <text x="150" y="498" text-anchor="middle" font-size="10.5" font-weight="600" fill="#1565C0">Kundenservice</text>
  <text x="150" y="520" text-anchor="middle" font-size="16">📞</text>

  <rect x="235" y="465" width="140" height="65" rx="8" fill="#E3F2FD" stroke="#90CAF9" stroke-width="0.8"/>
  <text x="305" y="490" text-anchor="middle" font-size="10.5" font-weight="600" fill="#1565C0">Schaden-</text>
  <text x="305" y="505" text-anchor="middle" font-size="10.5" font-weight="600" fill="#1565C0">management</text>
  <text x="305" y="520" text-anchor="middle" font-size="16">🛡️</text>

  <rect x="390" y="465" width="140" height="65" rx="8" fill="#E3F2FD" stroke="#90CAF9" stroke-width="0.8"/>
  <text x="460" y="490" text-anchor="middle" font-size="10.5" font-weight="600" fill="#1565C0">Sharing</text>
  <text x="460" y="505" text-anchor="middle" font-size="10.5" font-weight="600" fill="#1565C0">Administration</text>
  <text x="460" y="520" text-anchor="middle" font-size="16">🗂️</text>

  <!-- 7 Prozesse badge -->
  <rect x="700" y="465" width="420" height="65" rx="8" fill="#F5F5FF" stroke="#C5CAE9" stroke-width="0.8" stroke-dasharray="4 2"/>
  <text x="910" y="492" text-anchor="middle" font-size="11" fill="#5C6BC0">7 dokumentierte Arbeitsprozesse mit</text>
  <text x="910" y="510" text-anchor="middle" font-size="11" fill="#5C6BC0">Schritt-für-Schritt-Anleitungen für Betreiber</text>

  <!-- ==================== SECTION 2: Systeme für Sharing Communities ==================== -->
  <rect x="40" y="590" width="540" height="130" rx="14" fill="url(#communityGrad)" stroke="#A5D6A7" stroke-width="1" filter="url(#shadow)"/>
  <rect x="40" y="590" width="540" height="38" rx="14" fill="#2E7D32"/>
  <rect x="40" y="610" width="540" height="18" fill="#2E7D32"/>
  <text x="70" y="615" font-size="14" font-weight="700" fill="#FFFFFF" letter-spacing="0.8">🏘️  SYSTEME FÜR SHARING COMMUNITIES</text>

  <!-- Community card -->
  <rect x="60" y="642" width="500" height="62" rx="10" fill="#FFFFFF" filter="url(#shadow)" stroke="#E0E0E0" stroke-width="0.5"/>
  <circle cx="84" cy="673" r="6" fill="#E8F5E9" stroke="#66BB6A" stroke-width="1.2"/>
  <text x="100" y="667" font-size="12" font-weight="600" fill="#2E7D32">Community Portal</text>
  <rect x="225" y="657" width="68" height="18" rx="5" fill="#E8F5E9" stroke="#81C784" stroke-width="0.8"/>
  <text x="259" y="670" text-anchor="middle" font-size="8.5" font-weight="600" fill="#388E3C">öffentlich</text>
  <text x="100" y="685" font-size="9.5" fill="#78909C">Portal für Ankermieter, Fahrzeugsteller, Nutzergemeinschaften, Validierungsstellen, Fahrzeugbetreuer</text>

  <!-- ==================== SECTION 3: Systeme für Nutzer*innen ==================== -->
  <rect x="40" y="740" width="540" height="160" rx="14" fill="url(#nutzerGrad)" stroke="#FFCC80" stroke-width="1" filter="url(#shadow)"/>
  <rect x="40" y="740" width="540" height="38" rx="14" fill="#E65100"/>
  <rect x="40" y="760" width="540" height="18" fill="#E65100"/>
  <text x="70" y="765" font-size="14" font-weight="700" fill="#FFFFFF" letter-spacing="0.8">👤  SYSTEME FÜR NUTZER*INNEN</text>
  <text x="395" y="765" font-size="10" fill="#FFCC80">Sharing Dokumentation</text>

  <rect x="60" y="792" width="155" height="92" rx="10" fill="#FFFFFF" filter="url(#shadow)" stroke="#E0E0E0" stroke-width="0.5"/>
  <text x="137" y="825" text-anchor="middle" font-size="20">📱</text>
  <text x="137" y="847" text-anchor="middle" font-size="11" font-weight="600" fill="#E65100">Sharing App</text>
  <rect x="94" y="855" width="86" height="18" rx="5" fill="#FFF3E0" stroke="#FFB74D" stroke-width="0.8"/>
  <text x="137" y="868" text-anchor="middle" font-size="8.5" font-weight="600" fill="#E65100">öffentlich</text>

  <rect x="230" y="792" width="155" height="92" rx="10" fill="#FFFFFF" filter="url(#shadow)" stroke="#E0E0E0" stroke-width="0.5"/>
  <text x="307" y="825" text-anchor="middle" font-size="20">🌐</text>
  <text x="307" y="847" text-anchor="middle" font-size="11" font-weight="600" fill="#E65100">Sharing Portal</text>
  <rect x="264" y="855" width="86" height="18" rx="5" fill="#FFF3E0" stroke="#FFB74D" stroke-width="0.8"/>
  <text x="307" y="868" text-anchor="middle" font-size="8.5" font-weight="600" fill="#E65100">öffentlich</text>

  <rect x="400" y="792" width="155" height="92" rx="10" fill="#FFFFFF" filter="url(#shadow)" stroke="#E0E0E0" stroke-width="0.5"/>
  <text x="477" y="825" text-anchor="middle" font-size="20">💳</text>
  <text x="477" y="847" text-anchor="middle" font-size="11" font-weight="600" fill="#E65100">RFID-Karte</text>
  <rect x="434" y="855" width="86" height="18" rx="5" fill="#FFF3E0" stroke="#FFB74D" stroke-width="0.8"/>
  <text x="477" y="868" text-anchor="middle" font-size="8.5" font-weight="600" fill="#E65100">öffentlich</text>

  <!-- ==================== SECTION 4: Interne Dokumentation ==================== -->
  <rect x="620" y="590" width="540" height="310" rx="14" fill="url(#internGrad)" stroke="#CE93D8" stroke-width="1" filter="url(#shadow)"/>
  <rect x="620" y="590" width="540" height="38" rx="14" fill="#6A1B9A"/>
  <rect x="620" y="610" width="540" height="18" fill="#6A1B9A"/>
  <text x="650" y="615" font-size="14" font-weight="700" fill="#FFFFFF" letter-spacing="0.8">🔒  INTERNE DOKUMENTATION</text>

  <!-- Lock indicator -->
  <rect x="870" y="601" width="60" height="20" rx="5" fill="#4A148C"/>
  <text x="900" y="615" text-anchor="middle" font-size="8.5" font-weight="600" fill="#CE93D8">intern</text>

  <!-- Hotline Support card -->
  <rect x="640" y="645" width="500" height="105" rx="10" fill="#FFFFFF" filter="url(#shadow)" stroke="#E0E0E0" stroke-width="0.5"/>
  <rect x="640" y="645" width="500" height="30" rx="10" fill="#7B1FA2"/>
  <rect x="640" y="661" width="500" height="14" fill="#7B1FA2"/>
  <text x="660" y="667" font-size="11" font-weight="700" fill="#FFFFFF">Hotline Support</text>
  <text x="660" y="697" font-size="10.5" fill="#6A1B9A" font-weight="600">Zielgruppe: Hotline / Kundenservice</text>
  <text x="660" y="715" font-size="9.5" fill="#78909C">Interne Anleitungen und Prozesse für die telefonische</text>
  <text x="660" y="730" font-size="9.5" fill="#78909C">und schriftliche Kundenbetreuung</text>

  <!-- Plattform Support card -->
  <rect x="640" y="765" width="500" height="105" rx="10" fill="#FFFFFF" filter="url(#shadow)" stroke="#E0E0E0" stroke-width="0.5"/>
  <rect x="640" y="765" width="500" height="30" rx="10" fill="#7B1FA2"/>
  <rect x="640" y="781" width="500" height="14" fill="#7B1FA2"/>
  <text x="660" y="787" font-size="11" font-weight="700" fill="#FFFFFF">Plattform Support</text>
  <text x="660" y="817" font-size="10.5" fill="#6A1B9A" font-weight="600">Zielgruppe: Plattform-Support-Team</text>
  <text x="660" y="835" font-size="9.5" fill="#78909C">Interne technische Dokumentation für Plattform-</text>
  <text x="660" y="850" font-size="9.5" fill="#78909C">betrieb, Monitoring und Störungsbehebung</text>

  <!-- Footer -->
  <text x="600" y="910" text-anchor="middle" font-size="9" fill="#B0BEC5">MoPilot – Struktur Info Portal info.evemo.de │ Stand: 26.02.2026</text>
</svg>