<svg xmlns="http://www.w3.org/2000/svg" viewBox="0 0 1400 1520" font-family="Segoe UI, system-ui, sans-serif">
  <defs>
    <filter id="shadow" x="-2%" y="-2%" width="104%" height="108%">
      <feDropShadow dx="0" dy="2" stdDeviation="3" flood-color="#00000015"/>
    </filter>
    <filter id="shadowLg" x="-3%" y="-3%" width="106%" height="112%">
      <feDropShadow dx="0" dy="3" stdDeviation="5" flood-color="#00000020"/>
    </filter>
    <linearGradient id="headerGrad" x1="0" y1="0" x2="1" y2="0">
      <stop offset="0%" stop-color="#1A237E"/>
      <stop offset="100%" stop-color="#283593"/>
    </linearGradient>
    <linearGradient id="dockerGrad" x1="0" y1="0" x2="0" y2="1">
      <stop offset="0%" stop-color="#0288D1"/>
      <stop offset="100%" stop-color="#0277BD"/>
    </linearGradient>
    <marker id="arrowDown" markerWidth="8" markerHeight="6" refX="4" refY="0" orient="auto">
      <polygon points="0 0, 8 0, 4 6" fill="#5C6BC0"/>
    </marker>
    <marker id="arrowRight" markerWidth="6" markerHeight="8" refX="0" refY="4" orient="auto">
      <polygon points="0 0, 6 4, 0 8" fill="#5C6BC0"/>
    </marker>
    <marker id="arrowLeft" markerWidth="6" markerHeight="8" refX="6" refY="4" orient="auto">
      <polygon points="6 0, 0 4, 6 8" fill="#5C6BC0"/>
    </marker>
    <marker id="arrowUp" markerWidth="8" markerHeight="6" refX="4" refY="6" orient="auto">
      <polygon points="0 6, 8 6, 4 0" fill="#5C6BC0"/>
    </marker>
  </defs>

  <!-- Background -->
  <rect width="1400" height="1520" fill="#F5F6FA"/>

  <!-- ==================== HEADER ==================== -->
  <rect x="40" y="20" width="1320" height="82" rx="14" fill="url(#headerGrad)" filter="url(#shadowLg)"/>
  <text x="700" y="50" text-anchor="middle" font-size="24" font-weight="700" fill="#FFFFFF" letter-spacing="0.5">MoPilot Prototyp – Architektur</text>
  <text x="700" y="74" text-anchor="middle" font-size="12" fill="#9FA8DA" letter-spacing="1">ROLLENBASIERTE DEMO MIT KI-INTEGRATION · HETZNER CX33 · DOCKER</text>
  <text x="1320" y="50" text-anchor="end" font-size="10" fill="#7986CB">mopilot.website</text>
  <text x="1320" y="68" text-anchor="end" font-size="10" fill="#7986CB">142.132.232.211</text>

  <!-- ==================== LAYER 0: USERS / BROWSER ==================== -->
  <rect x="40" y="120" width="1320" height="28" rx="6" fill="#E8EAF6"/>
  <text x="700" y="139" text-anchor="middle" font-size="11" font-weight="700" fill="#283593" letter-spacing="1">NUTZER &amp; ENDGERÄTE</text>

  <!-- User role cards -->
  <rect x="55" y="160" width="155" height="70" rx="10" fill="#E8F5E9" filter="url(#shadow)" stroke="#A5D6A7" stroke-width="1"/>
  <text x="132" y="185" text-anchor="middle" font-size="14">👤</text>
  <text x="132" y="202" text-anchor="middle" font-size="10" font-weight="600" fill="#2E7D32">Endkunde</text>
  <text x="132" y="216" text-anchor="middle" font-size="8.5" fill="#78909C">Smartphone / Browser</text>

  <rect x="225" y="160" width="155" height="70" rx="10" fill="#E8F5E9" filter="url(#shadow)" stroke="#A5D6A7" stroke-width="1"/>
  <text x="302" y="185" text-anchor="middle" font-size="14">🏘️</text>
  <text x="302" y="202" text-anchor="middle" font-size="10" font-weight="600" fill="#2E7D32">Stationspate</text>
  <text x="302" y="216" text-anchor="middle" font-size="8.5" fill="#78909C">Smartphone / Browser</text>

  <rect x="395" y="160" width="155" height="70" rx="10" fill="#E3F2FD" filter="url(#shadow)" stroke="#90CAF9" stroke-width="1"/>
  <text x="472" y="185" text-anchor="middle" font-size="14">📞</text>
  <text x="472" y="202" text-anchor="middle" font-size="10" font-weight="600" fill="#1565C0">Hotline</text>
  <text x="472" y="216" text-anchor="middle" font-size="8.5" fill="#78909C">Desktop / Telefon</text>

  <rect x="565" y="160" width="155" height="70" rx="10" fill="#E3F2FD" filter="url(#shadow)" stroke="#90CAF9" stroke-width="1"/>
  <text x="642" y="185" text-anchor="middle" font-size="14">🏢</text>
  <text x="642" y="202" text-anchor="middle" font-size="10" font-weight="600" fill="#1565C0">Betreiber</text>
  <text x="642" y="216" text-anchor="middle" font-size="8.5" fill="#78909C">Desktop / Browser</text>

  <rect x="735" y="160" width="155" height="70" rx="10" fill="#E3F2FD" filter="url(#shadow)" stroke="#90CAF9" stroke-width="1"/>
  <text x="812" y="185" text-anchor="middle" font-size="14">🔧</text>
  <text x="812" y="202" text-anchor="middle" font-size="10" font-weight="600" fill="#1565C0">Flottenmanagement</text>
  <text x="812" y="216" text-anchor="middle" font-size="8.5" fill="#78909C">Desktop / Browser</text>

  <rect x="905" y="160" width="155" height="70" rx="10" fill="#FFF3E0" filter="url(#shadow)" stroke="#FFCC80" stroke-width="1"/>
  <text x="982" y="185" text-anchor="middle" font-size="14">🔌</text>
  <text x="982" y="202" text-anchor="middle" font-size="10" font-weight="600" fill="#E65100">Plattform-Support</text>
  <text x="982" y="216" text-anchor="middle" font-size="8.5" fill="#78909C">Desktop / Browser</text>

  <rect x="1075" y="160" width="155" height="70" rx="10" fill="#FFF3E0" filter="url(#shadow)" stroke="#FFCC80" stroke-width="1"/>
  <text x="1152" y="185" text-anchor="middle" font-size="14">📊</text>
  <text x="1152" y="202" text-anchor="middle" font-size="10" font-weight="600" fill="#E65100">Projektträger</text>
  <text x="1152" y="216" text-anchor="middle" font-size="8.5" fill="#78909C">Desktop / Browser</text>

  <!-- + weitere badge -->
  <rect x="1245" y="175" width="105" height="40" rx="8" fill="#F5F5F5" stroke="#E0E0E0" stroke-width="1" stroke-dasharray="4 2"/>
  <text x="1297" y="195" text-anchor="middle" font-size="9" fill="#9E9E9E">+ Validierung,</text>
  <text x="1297" y="208" text-anchor="middle" font-size="9" fill="#9E9E9E">Fzg-Steller, ...</text>

  <!-- Arrow down from users -->
  <line x1="700" y1="230" x2="700" y2="265" stroke="#5C6BC0" stroke-width="2" marker-end="url(#arrowDown)"/>
  <text x="720" y="253" font-size="9" fill="#5C6BC0">HTTPS</text>

  <!-- ==================== LAYER 1: DOMAIN / SSL ==================== -->
  <rect x="40" y="272" width="1320" height="28" rx="6" fill="#E8EAF6"/>
  <text x="700" y="291" text-anchor="middle" font-size="11" font-weight="700" fill="#283593" letter-spacing="1">DOMAIN &amp; SSL (mopilot.website → 142.132.232.211)</text>

  <!-- ==================== HETZNER SERVER BOX ==================== -->
  <rect x="40" y="315" width="1320" height="1060" rx="16" fill="#ECEFF1" filter="url(#shadowLg)" stroke="#B0BEC5" stroke-width="1.5"/>
  <!-- Server header -->
  <rect x="40" y="315" width="1320" height="42" rx="16" fill="#546E7A"/>
  <rect x="40" y="340" width="1320" height="17" fill="#546E7A"/>
  <text x="70" y="343" font-size="14" font-weight="700" fill="#FFFFFF">🖥️  HETZNER CX33 — Ubuntu 24.04 · Docker CE</text>
  <text x="1300" y="343" text-anchor="end" font-size="10" fill="#B0BEC5">4 vCPU · 8 GB RAM · 80 GB SSD · Falkenstein DE</text>

  <!-- ==================== NGINX REVERSE PROXY ==================== -->
  <rect x="70" y="380" width="1260" height="95" rx="12" fill="#FFFFFF" filter="url(#shadow)" stroke="#78909C" stroke-width="1"/>
  <rect x="70" y="380" width="1260" height="30" rx="12" fill="#455A64"/>
  <rect x="70" y="398" width="1260" height="12" fill="#455A64"/>
  <text x="100" y="401" font-size="12" font-weight="700" fill="#FFFFFF">🔀  Nginx Reverse Proxy + Let's Encrypt SSL</text>
  <rect x="910" y="385" width="130" height="20" rx="4" fill="#37474F"/>
  <text x="975" y="399" text-anchor="middle" font-size="9" fill="#B0BEC5">Docker Container</text>

  <!-- Route boxes -->
  <rect x="90" y="420" width="200" height="40" rx="6" fill="#E8F5E9" stroke="#A5D6A7" stroke-width="0.8"/>
  <text x="190" y="437" text-anchor="middle" font-size="9" font-weight="600" fill="#2E7D32">mopilot.website</text>
  <text x="190" y="451" text-anchor="middle" font-size="8" fill="#78909C">→ Frontend :3000</text>

  <rect x="310" y="420" width="200" height="40" rx="6" fill="#E3F2FD" stroke="#90CAF9" stroke-width="0.8"/>
  <text x="410" y="437" text-anchor="middle" font-size="9" font-weight="600" fill="#1565C0">api.mopilot.website</text>
  <text x="410" y="451" text-anchor="middle" font-size="8" fill="#78909C">→ Backend API :8000</text>

  <rect x="530" y="420" width="200" height="40" rx="6" fill="#F3E5F5" stroke="#CE93D8" stroke-width="0.8"/>
  <text x="630" y="437" text-anchor="middle" font-size="9" font-weight="600" fill="#7B1FA2">admin.mopilot.website</text>
  <text x="630" y="451" text-anchor="middle" font-size="8" fill="#78909C">→ Frontend :3000/admin</text>

  <rect x="750" y="420" width="200" height="40" rx="6" fill="#FFF3E0" stroke="#FFCC80" stroke-width="0.8"/>
  <text x="850" y="437" text-anchor="middle" font-size="9" font-weight="600" fill="#E65100">docs.mopilot.website</text>
  <text x="850" y="451" text-anchor="middle" font-size="8" fill="#78909C">→ Docs :3000/docs</text>

  <rect x="970" y="420" width="200" height="40" rx="6" fill="#FCE4EC" stroke="#EF9A9A" stroke-width="0.8"/>
  <text x="1070" y="437" text-anchor="middle" font-size="9" font-weight="600" fill="#C62828">app.mopilot.website</text>
  <text x="1070" y="451" text-anchor="middle" font-size="8" fill="#78909C">→ Frontend :3000/app</text>

  <!-- Arrow down -->
  <line x1="350" y1="475" x2="350" y2="510" stroke="#5C6BC0" stroke-width="1.5" marker-end="url(#arrowDown)"/>
  <line x1="700" y1="475" x2="700" y2="510" stroke="#5C6BC0" stroke-width="1.5" marker-end="url(#arrowDown)"/>

  <!-- ==================== APPLICATION LAYER ==================== -->
  <rect x="70" y="510" width="600" height="420" rx="12" fill="#FFFFFF" filter="url(#shadow)" stroke="#42A5F5" stroke-width="1.5"/>
  <!-- Header -->
  <rect x="70" y="510" width="600" height="34" rx="12" fill="#1E88E5"/>
  <rect x="70" y="530" width="600" height="14" fill="#1E88E5"/>
  <text x="100" y="533" font-size="13" font-weight="700" fill="#FFFFFF">⚛️  FRONTEND — Next.js / React</text>
  <rect x="510" y="515" width="140" height="20" rx="4" fill="#1565C0"/>
  <text x="580" y="529" text-anchor="middle" font-size="9" fill="#BBDEFB">Docker Container :3000</text>

  <!-- Login / Auth -->
  <rect x="90" y="556" width="560" height="60" rx="8" fill="#E8EAF6" stroke="#C5CAE9" stroke-width="0.8"/>
  <text x="110" y="577" font-size="11" font-weight="700" fill="#283593">🔐 Rollenbasierter Login</text>
  <text x="110" y="596" font-size="10" fill="#546E7A">Demo-Accounts für jede Rolle · JWT-Token · Rollenauswahl beim Login</text>
  <rect x="530" y="563" width="105" height="22" rx="5" fill="#C5CAE9"/>
  <text x="582" y="578" text-anchor="middle" font-size="8.5" font-weight="600" fill="#283593">NextAuth.js</text>

  <!-- Views per role -->
  <rect x="90" y="626" width="170" height="80" rx="8" fill="#E8F5E9" stroke="#A5D6A7" stroke-width="0.8"/>
  <text x="175" y="648" text-anchor="middle" font-size="10" font-weight="600" fill="#2E7D32">Kunden-Ansicht</text>
  <text x="175" y="665" text-anchor="middle" font-size="9" fill="#78909C">Chat · FAQs · Buchung</text>
  <text x="175" y="680" text-anchor="middle" font-size="9" fill="#78909C">Standorte · Tarife</text>
  <text x="175" y="697" text-anchor="middle" font-size="8" fill="#A5D6A7">Endkunde · Stationspate</text>

  <rect x="275" y="626" width="170" height="80" rx="8" fill="#E3F2FD" stroke="#90CAF9" stroke-width="0.8"/>
  <text x="360" y="648" text-anchor="middle" font-size="10" font-weight="600" fill="#1565C0">Betreiber-Ansicht</text>
  <text x="360" y="665" text-anchor="middle" font-size="9" fill="#78909C">Dashboard · Flotte</text>
  <text x="360" y="680" text-anchor="middle" font-size="9" fill="#78909C">Tickets · KI-Assistent</text>
  <text x="360" y="697" text-anchor="middle" font-size="8" fill="#90CAF9">Betreiber · Flotte · Fzg-Betr.</text>

  <rect x="460" y="626" width="180" height="80" rx="8" fill="#FFF3E0" stroke="#FFCC80" stroke-width="0.8"/>
  <text x="550" y="648" text-anchor="middle" font-size="10" font-weight="600" fill="#E65100">Support-Ansicht</text>
  <text x="550" y="665" text-anchor="middle" font-size="9" fill="#78909C">KI-Chat · Wissensbasis</text>
  <text x="550" y="680" text-anchor="middle" font-size="9" fill="#78909C">Gesprächsleitfaden</text>
  <text x="550" y="697" text-anchor="middle" font-size="8" fill="#FFCC80">Hotline · Plattform-Support</text>

  <!-- KI Chat Component -->
  <rect x="90" y="718" width="560" height="88" rx="8" fill="#F5F0FF" stroke="#B39DDB" stroke-width="1.2"/>
  <text x="110" y="741" font-size="12" font-weight="700" fill="#4527A0">🤖 MoPilot KI-Chat-Komponente</text>
  <text x="110" y="760" font-size="10" fill="#546E7A">Zentrales Chat-Interface, eingebettet in jede Ansicht</text>
  <text x="110" y="778" font-size="10" fill="#546E7A">Rollenkontext wird automatisch mitgesendet (System-Prompt pro Rolle)</text>
  <text x="110" y="796" font-size="10" fill="#546E7A">Streaming-Antworten · Markdown-Rendering · Quellenangaben</text>

  <!-- UI/UX stack -->
  <rect x="90" y="818" width="110" height="24" rx="5" fill="#E3F2FD" stroke="#90CAF9" stroke-width="0.5"/>
  <text x="145" y="834" text-anchor="middle" font-size="9" font-weight="600" fill="#1565C0">Tailwind CSS</text>
  <rect x="210" y="818" width="110" height="24" rx="5" fill="#E3F2FD" stroke="#90CAF9" stroke-width="0.5"/>
  <text x="265" y="834" text-anchor="middle" font-size="9" font-weight="600" fill="#1565C0">shadcn/ui</text>
  <rect x="330" y="818" width="110" height="24" rx="5" fill="#E3F2FD" stroke="#90CAF9" stroke-width="0.5"/>
  <text x="385" y="834" text-anchor="middle" font-size="9" font-weight="600" fill="#1565C0">Lucide Icons</text>
  <rect x="450" y="818" width="110" height="24" rx="5" fill="#E3F2FD" stroke="#90CAF9" stroke-width="0.5"/>
  <text x="505" y="834" text-anchor="middle" font-size="9" font-weight="600" fill="#1565C0">TypeScript</text>

  <!-- Horizontal arrow Frontend → Backend -->
  <line x1="670" y1="680" x2="710" y2="680" stroke="#5C6BC0" stroke-width="2.5" marker-end="url(#arrowRight)"/>
  <text x="685" y="670" font-size="8" fill="#5C6BC0" transform="rotate(-90 685 670)">REST API</text>

  <!-- ==================== BACKEND ==================== -->
  <rect x="720" y="510" width="610" height="420" rx="12" fill="#FFFFFF" filter="url(#shadow)" stroke="#FFA726" stroke-width="1.5"/>
  <rect x="720" y="510" width="610" height="34" rx="12" fill="#EF6C00"/>
  <rect x="720" y="530" width="610" height="14" fill="#EF6C00"/>
  <text x="750" y="533" font-size="13" font-weight="700" fill="#FFFFFF">🐍  BACKEND — FastAPI (Python)</text>
  <rect x="1160" y="515" width="150" height="20" rx="4" fill="#E65100"/>
  <text x="1235" y="529" text-anchor="middle" font-size="9" fill="#FFE0B2">Docker Container :8000</text>

  <!-- Auth module -->
  <rect x="740" y="556" width="280" height="55" rx="8" fill="#FFF3E0" stroke="#FFCC80" stroke-width="0.8"/>
  <text x="760" y="577" font-size="11" font-weight="600" fill="#E65100">🔐 Auth &amp; Rollen-Service</text>
  <text x="760" y="596" font-size="9.5" fill="#78909C">JWT-Validierung · Rollen-Middleware · Demo-Seeds</text>

  <!-- KI module -->
  <rect x="1040" y="556" width="270" height="55" rx="8" fill="#F5F0FF" stroke="#B39DDB" stroke-width="1.2"/>
  <text x="1060" y="577" font-size="11" font-weight="600" fill="#4527A0">🤖 KI-Service (LLM)</text>
  <text x="1060" y="596" font-size="9.5" fill="#78909C">Prompt-Management · Rollen-Prompts</text>

  <!-- API Routes -->
  <rect x="740" y="625" width="570" height="128" rx="8" fill="#FAFAFA" stroke="#E0E0E0" stroke-width="0.8"/>
  <text x="760" y="648" font-size="11" font-weight="700" fill="#37474F">API-Endpunkte:</text>

  <rect x="755" y="658" width="165" height="26" rx="5" fill="#E8F5E9" stroke="#A5D6A7" stroke-width="0.5"/>
  <text x="762" y="675" font-size="9" fill="#2E7D32" font-family="monospace">POST /api/chat</text>

  <rect x="930" y="658" width="165" height="26" rx="5" fill="#E3F2FD" stroke="#90CAF9" stroke-width="0.5"/>
  <text x="937" y="675" font-size="9" fill="#1565C0" font-family="monospace">POST /api/auth/login</text>

  <rect x="1105" y="658" width="185" height="26" rx="5" fill="#FFF3E0" stroke="#FFCC80" stroke-width="0.5"/>
  <text x="1112" y="675" font-size="9" fill="#E65100" font-family="monospace">GET /api/knowledge/{topic}</text>

  <rect x="755" y="692" width="165" height="26" rx="5" fill="#F3E5F5" stroke="#CE93D8" stroke-width="0.5"/>
  <text x="762" y="709" font-size="9" fill="#7B1FA2" font-family="monospace">GET /api/stations</text>

  <rect x="930" y="692" width="165" height="26" rx="5" fill="#FCE4EC" stroke="#EF9A9A" stroke-width="0.5"/>
  <text x="937" y="709" font-size="9" fill="#C62828" font-family="monospace">GET /api/vehicles</text>

  <rect x="1105" y="692" width="185" height="26" rx="5" fill="#E0F2F1" stroke="#80CBC4" stroke-width="0.5"/>
  <text x="1112" y="709" font-size="9" fill="#00695C" font-family="monospace">GET /api/user/profile</text>

  <rect x="755" y="726" width="165" height="22" rx="5" fill="#ECEFF1"/>
  <text x="762" y="741" font-size="9" fill="#78909C" font-family="monospace">GET /api/tariffs</text>

  <rect x="930" y="726" width="165" height="22" rx="5" fill="#ECEFF1"/>
  <text x="937" y="741" font-size="9" fill="#78909C" font-family="monospace">GET /api/faqs</text>

  <rect x="1105" y="726" width="185" height="22" rx="5" fill="#ECEFF1"/>
  <text x="1112" y="741" font-size="9" fill="#78909C" font-family="monospace">POST /api/tickets</text>

  <!-- Rollen-Prompts -->
  <rect x="740" y="767" width="570" height="85" rx="8" fill="#F5F0FF" stroke="#B39DDB" stroke-width="1"/>
  <text x="760" y="790" font-size="11" font-weight="700" fill="#4527A0">🧠 Rollen-spezifische System-Prompts</text>
  <text x="760" y="810" font-size="9.5" fill="#546E7A">Jede Rolle bekommt einen eigenen Kontext: Wissensbasis, Tonalität, erlaubte Aktionen</text>

  <rect x="755" y="822" width="86" height="20" rx="4" fill="#E8F5E9"/>
  <text x="798" y="836" text-anchor="middle" font-size="8" fill="#2E7D32">Endkunde</text>
  <rect x="848" y="822" width="86" height="20" rx="4" fill="#E8F5E9"/>
  <text x="891" y="836" text-anchor="middle" font-size="8" fill="#2E7D32">Stationspate</text>
  <rect x="941" y="822" width="66" height="20" rx="4" fill="#E3F2FD"/>
  <text x="974" y="836" text-anchor="middle" font-size="8" fill="#1565C0">Hotline</text>
  <rect x="1014" y="822" width="76" height="20" rx="4" fill="#E3F2FD"/>
  <text x="1052" y="836" text-anchor="middle" font-size="8" fill="#1565C0">Betreiber</text>
  <rect x="1097" y="822" width="66" height="20" rx="4" fill="#FFF3E0"/>
  <text x="1130" y="836" text-anchor="middle" font-size="8" fill="#E65100">Support</text>
  <rect x="1170" y="822" width="126" height="20" rx="4" fill="#FFF3E0"/>
  <text x="1233" y="836" text-anchor="middle" font-size="8" fill="#E65100">Projektträger ...</text>

  <!-- Python stack badges -->
  <rect x="740" y="860" width="75" height="24" rx="5" fill="#FFF3E0" stroke="#FFCC80" stroke-width="0.5"/>
  <text x="777" y="876" text-anchor="middle" font-size="9" font-weight="600" fill="#E65100">FastAPI</text>
  <rect x="825" y="860" width="80" height="24" rx="5" fill="#FFF3E0" stroke="#FFCC80" stroke-width="0.5"/>
  <text x="865" y="876" text-anchor="middle" font-size="9" font-weight="600" fill="#E65100">Pydantic</text>
  <rect x="915" y="860" width="105" height="24" rx="5" fill="#FFF3E0" stroke="#FFCC80" stroke-width="0.5"/>
  <text x="967" y="876" text-anchor="middle" font-size="9" font-weight="600" fill="#E65100">SQLAlchemy</text>
  <rect x="1030" y="860" width="110" height="24" rx="5" fill="#F5F0FF" stroke="#B39DDB" stroke-width="0.5"/>
  <text x="1085" y="876" text-anchor="middle" font-size="9" font-weight="600" fill="#4527A0">Anthropic SDK</text>
  <rect x="1150" y="860" width="85" height="24" rx="5" fill="#FFF3E0" stroke="#FFCC80" stroke-width="0.5"/>
  <text x="1192" y="876" text-anchor="middle" font-size="9" font-weight="600" fill="#E65100">Alembic</text>

  <!-- Arrows down to data layer -->
  <line x1="350" y1="850" x2="350" y2="960" stroke="#5C6BC0" stroke-width="1.5" marker-end="url(#arrowDown)"/>
  <line x1="1025" y1="895" x2="1025" y2="960" stroke="#5C6BC0" stroke-width="1.5" marker-end="url(#arrowDown)"/>

  <!-- ==================== DATA LAYER ==================== -->
  <rect x="70" y="960" width="1260" height="140" rx="12" fill="#FFFFFF" filter="url(#shadow)" stroke="#78909C" stroke-width="1"/>
  <rect x="70" y="960" width="1260" height="30" rx="12" fill="#37474F"/>
  <rect x="70" y="978" width="1260" height="12" fill="#37474F"/>
  <text x="100" y="981" font-size="12" font-weight="700" fill="#FFFFFF">💾  DATEN-SCHICHT</text>

  <!-- PostgreSQL -->
  <rect x="90" y="1002" width="280" height="82" rx="8" fill="#E3F2FD" stroke="#42A5F5" stroke-width="1"/>
  <text x="110" y="1025" font-size="12" font-weight="700" fill="#1565C0">🐘 PostgreSQL 16</text>
  <rect x="245" y="1012" width="110" height="18" rx="4" fill="#1565C0"/>
  <text x="300" y="1025" text-anchor="middle" font-size="8" fill="#FFF">Docker Container :5432</text>
  <text x="110" y="1045" font-size="9.5" fill="#546E7A">Nutzer, Rollen, Sessions,</text>
  <text x="110" y="1060" font-size="9.5" fill="#546E7A">Stationen, Fahrzeuge, Tarife, Tickets</text>
  <text x="110" y="1075" font-size="9.5" fill="#546E7A">Chat-Historien, Wissensbasis</text>

  <!-- Redis -->
  <rect x="395" y="1002" width="200" height="82" rx="8" fill="#FCE4EC" stroke="#EF5350" stroke-width="1"/>
  <text x="415" y="1025" font-size="12" font-weight="700" fill="#C62828">⚡ Redis</text>
  <rect x="475" y="1012" width="105" height="18" rx="4" fill="#C62828"/>
  <text x="527" y="1025" text-anchor="middle" font-size="8" fill="#FFF">Docker Container :6379</text>
  <text x="415" y="1045" font-size="9.5" fill="#546E7A">Session-Cache</text>
  <text x="415" y="1060" font-size="9.5" fill="#546E7A">Rate Limiting</text>
  <text x="415" y="1075" font-size="9.5" fill="#546E7A">Chat-Kontext-Cache</text>

  <!-- Knowledge Base -->
  <rect x="620" y="1002" width="280" height="82" rx="8" fill="#E8F5E9" stroke="#66BB6A" stroke-width="1"/>
  <text x="640" y="1025" font-size="12" font-weight="700" fill="#2E7D32">📚 Wissensbasis (Mockup)</text>
  <text x="640" y="1045" font-size="9.5" fill="#546E7A">FAQs · Tarife · Fahrzeug-Manuals</text>
  <text x="640" y="1060" font-size="9.5" fill="#546E7A">Standort-Infos · Anleitungen</text>
  <text x="640" y="1075" font-size="9.5" fill="#546E7A">Betreiber-spezifische Daten (ZEO / CC)</text>

  <!-- Volumes -->
  <rect x="925" y="1002" width="190" height="82" rx="8" fill="#F5F5F5" stroke="#BDBDBD" stroke-width="1"/>
  <text x="945" y="1025" font-size="12" font-weight="700" fill="#616161">📁 Docker Volumes</text>
  <text x="945" y="1045" font-size="9.5" fill="#546E7A">Persistente Daten</text>
  <text x="945" y="1060" font-size="9.5" fill="#546E7A">Upload-Dateien</text>
  <text x="945" y="1075" font-size="9.5" fill="#546E7A">Backups lokal</text>

  <!-- Logs -->
  <rect x="1140" y="1002" width="170" height="82" rx="8" fill="#FFF8E1" stroke="#FFD54F" stroke-width="1"/>
  <text x="1160" y="1025" font-size="12" font-weight="700" fill="#F9A825">📝 Logging</text>
  <text x="1160" y="1045" font-size="9.5" fill="#546E7A">Chat-Logs</text>
  <text x="1160" y="1060" font-size="9.5" fill="#546E7A">API-Requests</text>
  <text x="1160" y="1075" font-size="9.5" fill="#546E7A">Error-Tracking</text>

  <!-- ==================== EXTERNAL SERVICES ==================== -->
  <rect x="70" y="1120" width="1260" height="110" rx="12" fill="#FFFFFF" filter="url(#shadow)" stroke="#B39DDB" stroke-width="1.5"/>
  <rect x="70" y="1120" width="1260" height="30" rx="12" fill="#4527A0"/>
  <rect x="70" y="1138" width="1260" height="12" fill="#4527A0"/>
  <text x="100" y="1141" font-size="12" font-weight="700" fill="#FFFFFF">☁️  EXTERNE DIENSTE (API-Anbindung)</text>

  <!-- Anthropic -->
  <rect x="90" y="1162" width="310" height="52" rx="8" fill="#F5F0FF" stroke="#B39DDB" stroke-width="1"/>
  <text x="110" y="1185" font-size="12" font-weight="700" fill="#4527A0">🤖 Anthropic API (Claude)</text>
  <text x="110" y="1202" font-size="9.5" fill="#546E7A">KI-Antworten · Streaming · Rollen-Prompts</text>
  <rect x="310" y="1170" width="76" height="18" rx="4" fill="#4527A0"/>
  <text x="348" y="1183" text-anchor="middle" font-size="8" fill="#E1BEE7">api.anthropic.com</text>

  <!-- IONOS DNS -->
  <rect x="425" y="1162" width="230" height="52" rx="8" fill="#E3F2FD" stroke="#42A5F5" stroke-width="1"/>
  <text x="445" y="1185" font-size="12" font-weight="700" fill="#1565C0">🌐 IONOS DNS</text>
  <text x="445" y="1202" font-size="9.5" fill="#546E7A">Domain mopilot.website → Server</text>

  <!-- Let's Encrypt -->
  <rect x="680" y="1162" width="230" height="52" rx="8" fill="#E8F5E9" stroke="#66BB6A" stroke-width="1"/>
  <text x="700" y="1185" font-size="12" font-weight="700" fill="#2E7D32">🔒 Let's Encrypt</text>
  <text x="700" y="1202" font-size="9.5" fill="#546E7A">SSL-Zertifikate · Auto-Renewal</text>

  <!-- Future: evemo API -->
  <rect x="935" y="1162" width="380" height="52" rx="8" fill="#F5F5F5" stroke="#BDBDBD" stroke-width="1" stroke-dasharray="5 3"/>
  <text x="955" y="1185" font-size="12" font-weight="700" fill="#9E9E9E">🔮 Zukunft: evemo API / GBFS / MDS</text>
  <text x="955" y="1202" font-size="9.5" fill="#BDBDBD">Live-Daten (Stationen, Fahrzeuge, Buchungen)</text>

  <!-- End of server box is at y=1375 (315 + 1060) -->

  <!-- ==================== DOCKER COMPOSE ==================== -->
  <rect x="70" y="1250" width="1260" height="105" rx="12" fill="#FFFFFF" filter="url(#shadow)" stroke="#0288D1" stroke-width="1.5"/>
  <rect x="70" y="1250" width="1260" height="30" rx="12" fill="url(#dockerGrad)"/>
  <rect x="70" y="1268" width="1260" height="12" fill="url(#dockerGrad)"/>
  <text x="100" y="1271" font-size="12" font-weight="700" fill="#FFFFFF">🐳  DOCKER COMPOSE — Orchestrierung aller Services</text>

  <!-- Docker containers as boxes -->
  <rect x="90" y="1292" width="145" height="46" rx="6" fill="#E1F5FE" stroke="#4FC3F7" stroke-width="1"/>
  <text x="162" y="1312" text-anchor="middle" font-size="10" font-weight="600" fill="#0277BD">nginx</text>
  <text x="162" y="1328" text-anchor="middle" font-size="8" fill="#78909C">Reverse Proxy</text>

  <rect x="250" y="1292" width="145" height="46" rx="6" fill="#E1F5FE" stroke="#4FC3F7" stroke-width="1"/>
  <text x="322" y="1312" text-anchor="middle" font-size="10" font-weight="600" fill="#0277BD">frontend</text>
  <text x="322" y="1328" text-anchor="middle" font-size="8" fill="#78909C">Next.js :3000</text>

  <rect x="410" y="1292" width="145" height="46" rx="6" fill="#E1F5FE" stroke="#4FC3F7" stroke-width="1"/>
  <text x="482" y="1312" text-anchor="middle" font-size="10" font-weight="600" fill="#0277BD">backend</text>
  <text x="482" y="1328" text-anchor="middle" font-size="8" fill="#78909C">FastAPI :8000</text>

  <rect x="570" y="1292" width="145" height="46" rx="6" fill="#E1F5FE" stroke="#4FC3F7" stroke-width="1"/>
  <text x="642" y="1312" text-anchor="middle" font-size="10" font-weight="600" fill="#0277BD">postgres</text>
  <text x="642" y="1328" text-anchor="middle" font-size="8" fill="#78909C">PostgreSQL :5432</text>

  <rect x="730" y="1292" width="145" height="46" rx="6" fill="#E1F5FE" stroke="#4FC3F7" stroke-width="1"/>
  <text x="802" y="1312" text-anchor="middle" font-size="10" font-weight="600" fill="#0277BD">redis</text>
  <text x="802" y="1328" text-anchor="middle" font-size="8" fill="#78909C">Cache :6379</text>

  <rect x="890" y="1292" width="145" height="46" rx="6" fill="#E1F5FE" stroke="#4FC3F7" stroke-width="1"/>
  <text x="962" y="1312" text-anchor="middle" font-size="10" font-weight="600" fill="#0277BD">certbot</text>
  <text x="962" y="1328" text-anchor="middle" font-size="8" fill="#78909C">SSL-Renewal</text>

  <rect x="1050" y="1292" width="145" height="46" rx="6" fill="#E1F5FE" stroke="#4FC3F7" stroke-width="1" stroke-dasharray="4 2"/>
  <text x="1122" y="1312" text-anchor="middle" font-size="10" font-weight="600" fill="#0277BD">watchtower</text>
  <text x="1122" y="1328" text-anchor="middle" font-size="8" fill="#78909C">Auto-Updates (opt.)</text>

  <!-- ==================== LEGEND & FOOTER ==================== -->
  <rect x="40" y="1390" width="1320" height="90" rx="12" fill="#FFFFFF" filter="url(#shadow)" stroke="#E0E0E0" stroke-width="0.5"/>
  <text x="60" y="1414" font-size="12" font-weight="700" fill="#1A237E">Tech-Stack Zusammenfassung:</text>

  <rect x="60" y="1428" width="12" height="12" rx="2" fill="#E3F2FD" stroke="#42A5F5" stroke-width="0.8"/>
  <text x="80" y="1439" font-size="9.5" fill="#37474F">Frontend: Next.js 14, React, TypeScript, Tailwind, shadcn/ui</text>

  <rect x="420" y="1428" width="12" height="12" rx="2" fill="#FFF3E0" stroke="#FFCC80" stroke-width="0.8"/>
  <text x="440" y="1439" font-size="9.5" fill="#37474F">Backend: Python 3.11, FastAPI, SQLAlchemy, Pydantic</text>

  <rect x="780" y="1428" width="12" height="12" rx="2" fill="#F5F0FF" stroke="#B39DDB" stroke-width="0.8"/>
  <text x="800" y="1439" font-size="9.5" fill="#37474F">KI: Anthropic SDK, Claude API, rollenbasierte Prompts</text>

  <rect x="60" y="1450" width="12" height="12" rx="2" fill="#FCE4EC" stroke="#EF5350" stroke-width="0.8"/>
  <text x="80" y="1461" font-size="9.5" fill="#37474F">Daten: PostgreSQL 16, Redis, Docker Volumes</text>

  <rect x="420" y="1450" width="12" height="12" rx="2" fill="#E1F5FE" stroke="#4FC3F7" stroke-width="0.8"/>
  <text x="440" y="1461" font-size="9.5" fill="#37474F">Infra: Docker Compose, Nginx, Let's Encrypt, Hetzner CX33</text>

  <rect x="780" y="1450" width="12" height="12" rx="2" fill="#F5F5F5" stroke="#BDBDBD" stroke-width="0.8" stroke-dasharray="3 2"/>
  <text x="800" y="1461" font-size="9.5" fill="#9E9E9E">Gestrichelt = Zukunft / Optional</text>

  <!-- Footer -->
  <text x="700" y="1508" text-anchor="middle" font-size="9" fill="#B0BEC5">MoPilot Prototyp – Architekturskizze │ Hetzner CX33 · mopilot.website │ Stand: 27.02.2026</text>
</svg>