<svg xmlns="http://www.w3.org/2000/svg" viewBox="0 0 1200 820" font-family="Segoe UI, system-ui, sans-serif">
  <defs>
    <filter id="shadow" x="-2%" y="-2%" width="104%" height="108%">
      <feDropShadow dx="0" dy="2" stdDeviation="3" flood-color="#00000015"/>
    </filter>
    <filter id="shadowLg" x="-3%" y="-3%" width="106%" height="112%">
      <feDropShadow dx="0" dy="3" stdDeviation="5" flood-color="#00000020"/>
    </filter>
    <linearGradient id="headerGrad" x1="0" y1="0" x2="1" y2="0">
      <stop offset="0%" stop-color="#1A237E"/>
      <stop offset="100%" stop-color="#283593"/>
    </linearGradient>
    <!-- Channel gradients -->
    <linearGradient id="appGrad" x1="0" y1="0" x2="0" y2="1">
      <stop offset="0%" stop-color="#E8F5E9"/>
      <stop offset="100%" stop-color="#F1F8E9" stop-opacity="0.4"/>
    </linearGradient>
    <linearGradient id="webGrad" x1="0" y1="0" x2="0" y2="1">
      <stop offset="0%" stop-color="#E3F2FD"/>
      <stop offset="100%" stop-color="#F5F9FF" stop-opacity="0.4"/>
    </linearGradient>
    <linearGradient id="mailGrad" x1="0" y1="0" x2="0" y2="1">
      <stop offset="0%" stop-color="#FFF3E0"/>
      <stop offset="100%" stop-color="#FFFAF5" stop-opacity="0.4"/>
    </linearGradient>
    <linearGradient id="msgGrad" x1="0" y1="0" x2="0" y2="1">
      <stop offset="0%" stop-color="#F3E5F5"/>
      <stop offset="100%" stop-color="#FBF5FD" stop-opacity="0.4"/>
    </linearGradient>
    <linearGradient id="telGrad" x1="0" y1="0" x2="0" y2="1">
      <stop offset="0%" stop-color="#FCE4EC"/>
      <stop offset="100%" stop-color="#FFF5F7" stop-opacity="0.4"/>
    </linearGradient>
    <!-- Connector arrows -->
    <marker id="arrowCenter" markerWidth="8" markerHeight="6" refX="4" refY="3" orient="auto">
      <polygon points="0 0, 8 3, 0 6" fill="#7986CB"/>
    </marker>
  </defs>

  <!-- Background -->
  <rect width="1200" height="820" fill="#F8F9FC"/>

  <!-- ==================== HEADER ==================== -->
  <rect x="40" y="20" width="1120" height="72" rx="14" fill="url(#headerGrad)" filter="url(#shadowLg)"/>
  <text x="600" y="50" text-anchor="middle" font-size="22" font-weight="700" fill="#FFFFFF" letter-spacing="0.5">MoPilot – Frontend-Kanäle</text>
  <text x="600" y="72" text-anchor="middle" font-size="12" fill="#9FA8DA" letter-spacing="1">ÜBERSICHT DER KOMMUNIKATIONS- UND INTERAKTIONSKANÄLE</text>

  <!-- ==================== CENTRAL HUB: MoPilot KI ==================== -->
  <ellipse cx="600" cy="180" rx="115" ry="42" fill="#FFFFFF" filter="url(#shadowLg)" stroke="#5C6BC0" stroke-width="2.5"/>
  <ellipse cx="600" cy="180" rx="115" ry="42" fill="#E8EAF6" opacity="0.5"/>
  <text x="600" y="174" text-anchor="middle" font-size="14" font-weight="700" fill="#283593">🤖 MoPilot</text>
  <text x="600" y="194" text-anchor="middle" font-size="11" fill="#5C6BC0">KI-Assistent</text>

  <!-- Connecting lines from hub to channels -->
  <path d="M 500 205 Q 350 260 175 285" stroke="#7986CB" stroke-width="1.8" fill="none" stroke-dasharray="6 3" marker-end="url(#arrowCenter)"/>
  <path d="M 560 218 Q 500 280 500 320" stroke="#7986CB" stroke-width="1.8" fill="none" stroke-dasharray="6 3" marker-end="url(#arrowCenter)"/>
  <path d="M 600 222 Q 600 270 600 310" stroke="#7986CB" stroke-width="1.8" fill="none" stroke-dasharray="6 3" marker-end="url(#arrowCenter)"/>
  <path d="M 660 218 Q 780 270 860 290" stroke="#7986CB" stroke-width="1.8" fill="none" stroke-dasharray="6 3" marker-end="url(#arrowCenter)"/>
  <path d="M 710 205 Q 870 250 1030 285" stroke="#7986CB" stroke-width="1.8" fill="none" stroke-dasharray="6 3" marker-end="url(#arrowCenter)"/>

  <!-- Channel number labels on lines -->
  <circle cx="340" cy="258" r="12" fill="#FFFFFF" stroke="#7986CB" stroke-width="1.2"/>
  <text x="340" y="263" text-anchor="middle" font-size="10" font-weight="700" fill="#283593">1</text>
  <circle cx="510" cy="276" r="12" fill="#FFFFFF" stroke="#7986CB" stroke-width="1.2"/>
  <text x="510" y="281" text-anchor="middle" font-size="10" font-weight="700" fill="#283593">2</text>
  <circle cx="600" cy="272" r="12" fill="#FFFFFF" stroke="#7986CB" stroke-width="1.2"/>
  <text x="600" y="277" text-anchor="middle" font-size="10" font-weight="700" fill="#283593">3</text>
  <circle cx="780" cy="268" r="12" fill="#FFFFFF" stroke="#7986CB" stroke-width="1.2"/>
  <text x="780" y="273" text-anchor="middle" font-size="10" font-weight="700" fill="#283593">4</text>
  <circle cx="920" cy="254" r="12" fill="#FFFFFF" stroke="#7986CB" stroke-width="1.2"/>
  <text x="920" y="259" text-anchor="middle" font-size="10" font-weight="700" fill="#283593">5</text>

  <!-- ==================== CHANNEL 1: APP ==================== -->
  <rect x="40" y="290" width="230" height="490" rx="14" fill="url(#appGrad)" stroke="#A5D6A7" stroke-width="1.2" filter="url(#shadow)"/>
  <rect x="40" y="290" width="230" height="44" rx="14" fill="#43A047"/>
  <rect x="40" y="314" width="230" height="20" fill="#43A047"/>

  <!-- Phone mockup icon -->
  <rect x="56" y="298" width="22" height="30" rx="4" fill="none" stroke="#C8E6C9" stroke-width="1.5"/>
  <rect x="62" y="302" width="10" height="18" rx="1" fill="#C8E6C9" opacity="0.4"/>
  <circle cx="67" cy="324" r="2" fill="#C8E6C9"/>

  <text x="86" y="313" font-size="15" font-weight="700" fill="#FFFFFF">App</text>
  <text x="86" y="329" font-size="10" fill="#C8E6C9">Mobiler Zugangskanal</text>

  <!-- App card -->
  <rect x="58" y="350" width="195" height="160" rx="10" fill="#FFFFFF" filter="url(#shadow)" stroke="#E0E0E0" stroke-width="0.5"/>
  <!-- Mini phone frame -->
  <rect x="110" y="365" width="90" height="138" rx="12" fill="#F5F5F5" stroke="#BDBDBD" stroke-width="1"/>
  <rect x="116" y="378" width="78" height="108" rx="2" fill="#E8F5E9"/>
  <rect x="116" y="378" width="78" height="22" fill="#43A047" rx="2"/>
  <text x="155" y="393" text-anchor="middle" font-size="7" font-weight="600" fill="#FFF">Sharing App</text>
  <circle cx="155" y="422" r="12" fill="#FFFFFF" opacity="0.6"/>
  <text x="155" y="426" text-anchor="middle" font-size="12">🚗</text>
  <rect x="126" y="444" width="58" height="8" rx="2" fill="#A5D6A7" opacity="0.6"/>
  <rect x="126" y="457" width="48" height="6" rx="2" fill="#C8E6C9" opacity="0.5"/>
  <rect x="126" y="467" width="58" height="12" rx="3" fill="#2E7D32"/>
  <text x="155" y="476" text-anchor="middle" font-size="6" fill="#FFF" font-weight="600">Buchen</text>
  <circle cx="155" cy="496" r="3" fill="#BDBDBD"/>

  <text x="155" y="530" text-anchor="middle" font-size="12" font-weight="700" fill="#2E7D32">Sharing App</text>
  <text x="155" y="548" text-anchor="middle" font-size="9.5" fill="#78909C">Buchung, Fahrzeugöffnung,</text>
  <text x="155" y="562" text-anchor="middle" font-size="9.5" fill="#78909C">Statusanzeige, Konto</text>

  <!-- Nutzer badges -->
  <rect x="58" y="580" width="195" height="46" rx="8" fill="#F1F8E9" stroke="#C8E6C9" stroke-width="0.8"/>
  <text x="75" y="600" font-size="9" font-weight="600" fill="#2E7D32">Nutzer:</text>
  <text x="75" y="616" font-size="9" fill="#558B2F">Endkunde · Stationspate</text>

  <rect x="58" y="635" width="195" height="50" rx="8" fill="#F1F8E9" stroke="#C8E6C9" stroke-width="0.8"/>
  <text x="75" y="655" font-size="9" font-weight="600" fill="#2E7D32">Plattformen:</text>
  <text x="75" y="671" font-size="9" fill="#558B2F">iOS · Android · Web (Responsive)</text>

  <!-- Digital badge -->
  <rect x="58" y="700" width="195" height="28" rx="6" fill="#2E7D32"/>
  <text x="155" y="719" text-anchor="middle" font-size="9.5" font-weight="600" fill="#FFFFFF">✦ DIGITAL · SELF-SERVICE</text>

  <rect x="58" y="738" width="195" height="28" rx="6" fill="#E8F5E9" stroke="#A5D6A7" stroke-width="0.8"/>
  <text x="155" y="757" text-anchor="middle" font-size="9" fill="#2E7D32">🤖 KI-Chat in App integrierbar</text>

  <!-- ==================== CHANNEL 2: WEBBROWSER ==================== -->
  <rect x="290" y="290" width="420" height="490" rx="14" fill="url(#webGrad)" stroke="#90CAF9" stroke-width="1.2" filter="url(#shadow)"/>
  <rect x="290" y="290" width="420" height="44" rx="14" fill="#1E88E5"/>
  <rect x="290" y="314" width="420" height="20" fill="#1E88E5"/>

  <!-- Browser icon -->
  <circle cx="314" cy="312" r="14" fill="none" stroke="#90CAF9" stroke-width="1.5"/>
  <line x1="300" y1="312" x2="328" y2="312" stroke="#90CAF9" stroke-width="1"/>
  <line x1="314" y1="298" x2="314" y2="326" stroke="#90CAF9" stroke-width="1"/>
  <ellipse cx="314" cy="312" rx="6" ry="14" fill="none" stroke="#90CAF9" stroke-width="0.8"/>

  <text x="336" y="313" font-size="15" font-weight="700" fill="#FFFFFF">Webbrowser</text>
  <text x="336" y="329" font-size="10" fill="#90CAF9">Webbasierte Portale und Systeme</text>

  <!-- Admin Center + Provider Portal -->
  <rect x="308" y="350" width="385" height="78" rx="10" fill="#FFFFFF" filter="url(#shadow)" stroke="#42A5F5" stroke-width="1"/>
  <rect x="308" y="350" width="385" height="24" rx="10" fill="#1565C0"/>
  <rect x="308" y="362" width="385" height="12" fill="#1565C0"/>
  <text x="328" y="368" font-size="10" font-weight="700" fill="#FFFFFF">⚙️ Admin Center + Provider Portal</text>
  <text x="328" y="392" font-size="10" fill="#37474F">Stationen, Fahrzeuge, Tarife, Buchungen, Einnahmen</text>
  <text x="328" y="408" font-size="9" fill="#78909C">Nutzer: Betreiber · Flottenmanagement · Fahrzeugbetreuer</text>
  <rect x="605" y="392" width="78" height="18" rx="4" fill="#E3F2FD" stroke="#90CAF9" stroke-width="0.5"/>
  <text x="644" y="404" text-anchor="middle" font-size="8" font-weight="600" fill="#1565C0">intern</text>

  <!-- Projektwebseite -->
  <rect x="308" y="438" width="385" height="78" rx="10" fill="#FFFFFF" filter="url(#shadow)" stroke="#66BB6A" stroke-width="1"/>
  <rect x="308" y="438" width="385" height="24" rx="10" fill="#43A047"/>
  <rect x="308" y="450" width="385" height="12" fill="#43A047"/>
  <text x="328" y="456" font-size="10" font-weight="700" fill="#FFFFFF">🌐 Projektwebseite</text>
  <text x="440" y="456" font-size="8.5" fill="#C8E6C9">zeo-carsharing.de · carsharing2go.net</text>
  <text x="328" y="480" font-size="10" fill="#37474F">Verträge, AGB, FAQs, Tarife, Fahrzeughandbücher</text>
  <text x="328" y="496" font-size="9" fill="#78909C">Nutzer: Endkunde · Stationspate · Projektträger</text>
  <rect x="605" y="480" width="78" height="18" rx="4" fill="#E8F5E9" stroke="#A5D6A7" stroke-width="0.5"/>
  <text x="644" y="492" text-anchor="middle" font-size="8" font-weight="600" fill="#2E7D32">öffentlich</text>

  <!-- Ticketsystem -->
  <rect x="308" y="526" width="385" height="78" rx="10" fill="#FFFFFF" filter="url(#shadow)" stroke="#FFA726" stroke-width="1"/>
  <rect x="308" y="526" width="385" height="24" rx="10" fill="#EF6C00"/>
  <rect x="308" y="538" width="385" height="12" fill="#EF6C00"/>
  <text x="328" y="544" font-size="10" font-weight="700" fill="#FFFFFF">🎫 Ticketsystem</text>
  <text x="420" y="544" font-size="8.5" fill="#FFE0B2">support.evemo.de</text>
  <text x="328" y="568" font-size="10" fill="#37474F">Kundenanfragen, Chat, Tickets, Problembehandlung</text>
  <text x="328" y="584" font-size="9" fill="#78909C">Nutzer: Betreiber · Hotline · Flottenmanagement</text>
  <rect x="605" y="568" width="78" height="18" rx="4" fill="#FFF3E0" stroke="#FFB74D" stroke-width="0.5"/>
  <text x="644" y="580" text-anchor="middle" font-size="8" font-weight="600" fill="#E65100">intern</text>

  <!-- Community Portal -->
  <rect x="308" y="614" width="385" height="78" rx="10" fill="#FFFFFF" filter="url(#shadow)" stroke="#CE93D8" stroke-width="1"/>
  <rect x="308" y="614" width="385" height="24" rx="10" fill="#7B1FA2"/>
  <rect x="308" y="626" width="385" height="12" fill="#7B1FA2"/>
  <text x="328" y="632" font-size="10" font-weight="700" fill="#FFFFFF">🏘️ Community Portal</text>
  <text x="328" y="656" font-size="10" fill="#37474F">Ankermieter, Fahrzeugsteller, Nutzergemeinschaften,</text>
  <text x="328" y="672" font-size="9" fill="#78909C">Validierungsstellen, Fahrzeugbetreuer</text>
  <rect x="605" y="656" width="78" height="18" rx="4" fill="#F3E5F5" stroke="#CE93D8" stroke-width="0.5"/>
  <text x="644" y="668" text-anchor="middle" font-size="8" font-weight="600" fill="#7B1FA2">öffentlich</text>

  <!-- Web summary -->
  <rect x="308" y="702" width="385" height="28" rx="6" fill="#1565C0"/>
  <text x="500" y="721" text-anchor="middle" font-size="9.5" font-weight="600" fill="#FFFFFF">✦ 4 WEBPORTALE · ALLE ROLLEN · BREITESTER KANAL</text>

  <rect x="308" y="738" width="385" height="28" rx="6" fill="#E3F2FD" stroke="#90CAF9" stroke-width="0.8"/>
  <text x="500" y="757" text-anchor="middle" font-size="9" fill="#1565C0">🤖 KI-Chat in Ticketsystem + Admin Center integrierbar</text>

  <!-- ==================== CHANNEL 3: E-MAIL ==================== -->
  <rect x="730" y="290" width="195" height="270" rx="14" fill="url(#mailGrad)" stroke="#FFCC80" stroke-width="1.2" filter="url(#shadow)"/>
  <rect x="730" y="290" width="195" height="44" rx="14" fill="#EF6C00"/>
  <rect x="730" y="314" width="195" height="20" fill="#EF6C00"/>

  <!-- Mail icon -->
  <rect x="746" y="300" width="22" height="16" rx="2" fill="none" stroke="#FFE0B2" stroke-width="1.5"/>
  <polyline points="746,300 757,310 768,300" fill="none" stroke="#FFE0B2" stroke-width="1.2"/>

  <text x="776" y="313" font-size="15" font-weight="700" fill="#FFFFFF">E-Mail</text>
  <text x="776" y="329" font-size="10" fill="#FFE0B2">Asynchron</text>

  <rect x="748" y="350" width="160" height="120" rx="10" fill="#FFFFFF" filter="url(#shadow)" stroke="#E0E0E0" stroke-width="0.5"/>
  <!-- Mini email mockup -->
  <rect x="764" y="365" width="128" height="16" rx="3" fill="#FFF3E0"/>
  <text x="780" y="376" font-size="7" fill="#E65100" font-weight="600">Von: betreiber@...</text>
  <rect x="764" y="386" width="128" height="16" rx="3" fill="#FFF3E0"/>
  <text x="780" y="397" font-size="7" fill="#E65100" font-weight="600">An: support@evemo.de</text>
  <line x1="764" y1="408" x2="892" y2="408" stroke="#FFE0B2" stroke-width="0.5"/>
  <rect x="764" y="414" width="110" height="6" rx="2" fill="#FFE0B2" opacity="0.5"/>
  <rect x="764" y="424" width="90" height="6" rx="2" fill="#FFE0B2" opacity="0.4"/>
  <rect x="764" y="434" width="105" height="6" rx="2" fill="#FFE0B2" opacity="0.3"/>
  <rect x="764" y="450" width="60" height="14" rx="3" fill="#EF6C00"/>
  <text x="794" y="460" text-anchor="middle" font-size="7" fill="#FFF" font-weight="600">Senden</text>

  <text x="828" y="492" text-anchor="middle" font-size="10" font-weight="600" fill="#E65100">eingehend ⟷ ausgehend</text>
  <text x="828" y="508" text-anchor="middle" font-size="9" fill="#78909C">Betreiber, Plattform-Support,</text>
  <text x="828" y="522" text-anchor="middle" font-size="9" fill="#78909C">Flottenmanagement</text>

  <rect x="748" y="535" width="160" height="16" rx="4" fill="#EF6C00"/>
  <text x="828" y="547" text-anchor="middle" font-size="8.5" font-weight="600" fill="#FFFFFF">✦ ASYNCHRON · DOKUMENTIERT</text>

  <!-- ==================== CHANNEL 4: MESSAGING ==================== -->
  <rect x="730" y="575" width="195" height="195" rx="14" fill="url(#msgGrad)" stroke="#CE93D8" stroke-width="1.2" filter="url(#shadow)"/>
  <rect x="730" y="575" width="195" height="44" rx="14" fill="#7B1FA2"/>
  <rect x="730" y="599" width="195" height="20" fill="#7B1FA2"/>

  <!-- Chat bubble icon -->
  <rect x="746" y="584" width="20" height="16" rx="4" fill="none" stroke="#E1BEE7" stroke-width="1.5"/>
  <polygon points="750,600 746,607 756,600" fill="none" stroke="#E1BEE7" stroke-width="1.2"/>

  <text x="774" y="598" font-size="15" font-weight="700" fill="#FFFFFF">Messaging</text>
  <text x="774" y="614" font-size="10" fill="#E1BEE7">Chat-basiert</text>

  <rect x="748" y="632" width="160" height="80" rx="10" fill="#FFFFFF" filter="url(#shadow)" stroke="#E0E0E0" stroke-width="0.5"/>
  <!-- Chat bubbles mockup -->
  <rect x="762" y="644" width="80" height="18" rx="8" fill="#F3E5F5"/>
  <text x="802" y="657" text-anchor="middle" font-size="7" fill="#6A1B9A">Wie ändere ich...?</text>
  <rect x="852" y="668" width="46" height="18" rx="8" fill="#7B1FA2"/>
  <text x="875" y="681" text-anchor="middle" font-size="7" fill="#FFF">🤖 ...</text>
  <rect x="762" y="692" width="56" height="12" rx="6" fill="#E1BEE7" opacity="0.5"/>

  <text x="828" y="728" text-anchor="middle" font-size="9" fill="#78909C">MS Teams, WhatsApp,</text>
  <text x="828" y="742" text-anchor="middle" font-size="9" fill="#78909C">Plattform-Messaging</text>

  <rect x="748" y="750" width="160" height="16" rx="4" fill="#7B1FA2"/>
  <text x="828" y="762" text-anchor="middle" font-size="8.5" font-weight="600" fill="#FFFFFF">✦ ECHTZEIT · INFORMELL</text>

  <!-- ==================== CHANNEL 5: TELEFON ==================== -->
  <rect x="945" y="290" width="215" height="480" rx="14" fill="url(#telGrad)" stroke="#EF9A9A" stroke-width="1.2" filter="url(#shadow)"/>
  <rect x="945" y="290" width="215" height="44" rx="14" fill="#C62828"/>
  <rect x="945" y="314" width="215" height="20" fill="#C62828"/>

  <!-- Phone icon -->
  <text x="968" y="317" font-size="18">📞</text>

  <text x="994" y="313" font-size="15" font-weight="700" fill="#FFFFFF">Telefon</text>
  <text x="994" y="329" font-size="10" fill="#FFCDD2">Direktkontakt / Sprache</text>

  <!-- Hotline card -->
  <rect x="963" y="350" width="180" height="172" rx="10" fill="#FFFFFF" filter="url(#shadow)" stroke="#EF5350" stroke-width="1"/>
  <rect x="963" y="350" width="180" height="28" rx="10" fill="#D32F2F"/>
  <rect x="963" y="366" width="180" height="12" fill="#D32F2F"/>
  <text x="983" y="370" font-size="11" font-weight="700" fill="#FFFFFF">📞 Hotline</text>

  <!-- Phone ring visual -->
  <circle cx="1053" cy="420" r="24" fill="#FCE4EC" stroke="#EF9A9A" stroke-width="1"/>
  <circle cx="1053" cy="420" r="16" fill="#FFCDD2" stroke="#EF5350" stroke-width="0.8"/>
  <text x="1053" y="425" text-anchor="middle" font-size="16">📱</text>
  <!-- Ring waves -->
  <path d="M 1030 398 Q 1025 405 1030 412" fill="none" stroke="#EF9A9A" stroke-width="1.2"/>
  <path d="M 1025 394 Q 1018 405 1025 416" fill="none" stroke="#EF9A9A" stroke-width="0.8"/>
  <path d="M 1076 398 Q 1081 405 1076 412" fill="none" stroke="#EF9A9A" stroke-width="1.2"/>
  <path d="M 1081 394 Q 1088 405 1081 416" fill="none" stroke="#EF9A9A" stroke-width="0.8"/>

  <text x="1053" y="462" text-anchor="middle" font-size="10" font-weight="600" fill="#C62828">Anruf bei Hotline</text>
  <text x="1053" y="478" text-anchor="middle" font-size="9" fill="#78909C">Erste Anlaufstelle für</text>
  <text x="1053" y="492" text-anchor="middle" font-size="9" fill="#78909C">Nutzer mit akuten Problemen</text>
  <text x="1053" y="510" text-anchor="middle" font-size="8.5" fill="#EF5350">Vianova Hotline</text>

  <!-- Kundenservice card -->
  <rect x="963" y="535" width="180" height="140" rx="10" fill="#FFFFFF" filter="url(#shadow)" stroke="#EF5350" stroke-width="1"/>
  <rect x="963" y="535" width="180" height="28" rx="10" fill="#D32F2F"/>
  <rect x="963" y="551" width="180" height="12" fill="#D32F2F"/>
  <text x="983" y="555" font-size="11" font-weight="700" fill="#FFFFFF">🎧 Kundenservice</text>

  <circle cx="1053" cy="604" r="22" fill="#FCE4EC" stroke="#EF9A9A" stroke-width="1"/>
  <text x="1053" y="609" text-anchor="middle" font-size="18">🎧</text>

  <text x="1053" y="642" text-anchor="middle" font-size="10" font-weight="600" fill="#C62828">Anruf bei Kundenservice</text>
  <text x="1053" y="658" text-anchor="middle" font-size="9" fill="#78909C">Erweiterte Betreuung,</text>
  <text x="1053" y="672" text-anchor="middle" font-size="9" fill="#78909C">komplexe Anliegen</text>

  <!-- Telefon summary -->
  <rect x="963" y="690" width="180" height="28" rx="6" fill="#C62828"/>
  <text x="1053" y="709" text-anchor="middle" font-size="9" font-weight="600" fill="#FFFFFF">✦ SYNCHRON · PERSÖNLICH</text>

  <rect x="963" y="728" width="180" height="28" rx="6" fill="#FCE4EC" stroke="#EF9A9A" stroke-width="0.8"/>
  <text x="1053" y="747" text-anchor="middle" font-size="8.5" fill="#C62828">🤖 KI als Gesprächsleitfaden</text>

  <!-- ==================== FOOTER ==================== -->
  <text x="600" y="808" text-anchor="middle" font-size="9" fill="#B0BEC5">MoPilot – Frontend-Kanäle Übersicht │ Stand: 26.02.2026</text>
</svg>